<svg width="102" height="77" fill="none" xmlns="http://www.w3.org/2000/svg"><path d="M92.615.625h-6.308a2.102 2.102 0 00-2.103 2.104c0 1.163.94 2.104 2.103 2.104h6.308a4.211 4.211 0 014.206 4.209v6.312a2.102 2.102 0 104.205 0V9.042c0-4.642-3.774-8.417-8.411-8.417zM2.194 17.458a2.102 2.102 0 002.103-2.104V9.042a4.211 4.211 0 014.206-4.209h6.308a2.102 2.102 0 002.103-2.104c0-1.163-.94-2.104-2.103-2.104H8.503C3.866.625.092 4.4.092 9.042v6.312c0 1.163.94 2.104 2.102 2.104zm96.729 42.084a2.102 2.102 0 00-2.103 2.104v6.312a4.211 4.211 0 01-4.205 4.209h-6.308a2.102 2.102 0 00-2.103 2.104c0 1.163.94 2.104 2.103 2.104h6.308c4.637 0 8.411-3.775 8.411-8.417v-6.312c0-1.163-.94-2.104-2.103-2.104zM14.811 72.167H8.503a4.211 4.211 0 01-4.206-4.209v-6.312a2.102 2.102 0 10-4.205 0v6.312c0 4.642 3.774 8.417 8.41 8.417h6.31a2.102 2.102 0 002.102-2.104c0-1.163-.94-2.104-2.103-2.104zm0-58.917a2.102 2.102 0 00-2.102 2.104v46.292a2.102 2.102 0 104.205 0V15.354c0-1.163-.94-2.104-2.103-2.104zm42.056 0a2.102 2.102 0 00-2.102 2.104v46.292a2.102 2.102 0 104.205 0V15.354c0-1.163-.94-2.104-2.103-2.104zm29.439 0a2.102 2.102 0 00-2.102 2.104v46.292a2.102 2.102 0 104.205 0V15.354c0-1.163-.94-2.104-2.103-2.104zm-58.878 0a2.102 2.102 0 00-2.103 2.104v33.667a2.102 2.102 0 104.206 0V15.354c0-1.163-.94-2.104-2.103-2.104zm8.412 0a2.102 2.102 0 00-2.104 2.104v33.667a2.102 2.102 0 104.206 0V15.354c0-1.163-.94-2.104-2.103-2.104zm8.41 0a2.102 2.102 0 00-2.102 2.104v33.667a2.102 2.102 0 104.205 0V15.354c0-1.163-.94-2.104-2.102-2.104zm21.028 0a2.102 2.102 0 00-2.102 2.104v33.667a2.102 2.102 0 104.205 0V15.354c0-1.163-.94-2.104-2.103-2.104zm12.617 0a2.102 2.102 0 00-2.102 2.104v33.667a2.102 2.102 0 104.205 0V15.354c0-1.163-.94-2.104-2.103-2.104zm0 42.083a2.102 2.102 0 00-2.102 2.105v4.208a2.102 2.102 0 104.205 0v-4.209c0-1.163-.94-2.104-2.103-2.104zm-12.617 0a2.102 2.102 0 00-2.102 2.105v4.208a2.102 2.102 0 104.205 0v-4.209c0-1.163-.94-2.104-2.103-2.104zm-21.028 0a2.102 2.102 0 00-2.102 2.105v4.208a2.102 2.102 0 104.205 0v-4.209c0-1.163-.94-2.104-2.102-2.104zm-8.41 0a2.102 2.102 0 00-2.104 2.105v4.208a2.102 2.102 0 104.206 0v-4.209c0-1.163-.94-2.104-2.103-2.104zm-8.412 0a2.102 2.102 0 00-2.103 2.105v4.208a2.102 2.102 0 104.206 0v-4.209c0-1.163-.94-2.104-2.103-2.104z" fill="#303C42"/><path d="M98.923 34.292H2.194a2.102 2.102 0 00-2.102 2.104c0 1.163.94 2.104 2.102 2.104h96.73a2.102 2.102 0 002.102-2.104c0-1.163-.94-2.104-2.103-2.104z" fill="#D32E2E"/><mask id="path-19-inside-1_6_421" fill="#fff"><path d="M27.428 55.333a2.102 2.102 0 00-2.103 2.105v4.208a2.102 2.102 0 104.206 0v-4.209c0-1.162-.94-2.104-2.103-2.104zm8.411 0a2.102 2.102 0 00-2.102 2.105v4.208a2.102 2.102 0 104.205 0v-4.209c0-1.162-.94-2.104-2.103-2.104zm8.412 0a2.102 2.102 0 00-2.103 2.105v4.208a2.102 2.102 0 104.205 0v-4.209c0-1.162-.94-2.104-2.102-2.104zM14.81 72.167H8.503a4.211 4.211 0 01-4.206-4.209v-6.312a2.102 2.102 0 10-4.205 0v6.312c0 4.642 3.774 8.417 8.41 8.417h6.31a2.102 2.102 0 002.102-2.104c0-1.163-.94-2.104-2.103-2.104zM2.194 17.458a2.102 2.102 0 002.103-2.104V9.042a4.211 4.211 0 014.206-4.209h6.308a2.102 2.102 0 002.103-2.104c0-1.163-.94-2.104-2.103-2.104H8.503C3.866.625.092 4.4.092 9.042v6.312c0 1.163.94 2.104 2.102 2.104zm96.73 16.834H88.408V15.354a2.102 2.102 0 10-4.205 0v18.938h-4.206V15.354a2.102 2.102 0 10-4.206 0v18.938h-8.41V15.354a2.102 2.102 0 10-4.206 0v18.938H58.97V15.354a2.102 2.102 0 10-4.206 0v18.938h-8.41V15.354a2.102 2.102 0 10-4.206 0v18.938h-4.206V15.354a2.102 2.102 0 10-4.206 0v18.938h-4.205V15.354a2.102 2.102 0 10-4.206 0v18.938h-8.41V15.354a2.102 2.102 0 10-4.206 0v18.938H2.194a2.102 2.102 0 00-2.102 2.104c0 1.163.94 2.104 2.102 2.104h10.514v23.146a2.102 2.102 0 104.206 0V38.5h8.411v10.52a2.102 2.102 0 104.206 0V38.5h4.206v10.52a2.102 2.102 0 104.205 0V38.5h4.206v10.52a2.102 2.102 0 104.205 0V38.5h8.411v23.146a2.102 2.102 0 104.206 0V38.5h4.206v10.52a2.102 2.102 0 104.205 0V38.5h8.412v10.52a2.102 2.102 0 104.205 0V38.5h4.206v23.146a2.102 2.102 0 104.205 0V38.5h10.514a2.102 2.102 0 002.103-2.104c0-1.163-.94-2.104-2.103-2.104zM92.613.625h-6.308a2.102 2.102 0 00-2.102 2.104c0 1.163.94 2.104 2.103 2.104h6.308a4.211 4.211 0 014.206 4.209v6.312a2.102 2.102 0 104.205 0V9.042c0-4.642-3.774-8.417-8.411-8.417zM65.279 55.333a2.102 2.102 0 00-2.102 2.105v4.208a2.102 2.102 0 104.205 0v-4.209c0-1.162-.94-2.104-2.103-2.104zm33.645 4.209a2.102 2.102 0 00-2.103 2.104v6.312a4.211 4.211 0 01-4.205 4.209h-6.308a2.102 2.102 0 00-2.103 2.104c0 1.163.94 2.104 2.103 2.104h6.308c4.637 0 8.411-3.775 8.411-8.417v-6.312c0-1.163-.94-2.104-2.103-2.104zm-21.028-4.209a2.102 2.102 0 00-2.102 2.105v4.208a2.102 2.102 0 104.205 0v-4.209c0-1.162-.94-2.104-2.103-2.104z"/></mask><path d="M27.428 55.333a2.102 2.102 0 00-2.103 2.105v4.208a2.102 2.102 0 104.206 0v-4.209c0-1.162-.94-2.104-2.103-2.104zm8.411 0a2.102 2.102 0 00-2.102 2.105v4.208a2.102 2.102 0 104.205 0v-4.209c0-1.162-.94-2.104-2.103-2.104zm8.412 0a2.102 2.102 0 00-2.103 2.105v4.208a2.102 2.102 0 104.205 0v-4.209c0-1.162-.94-2.104-2.102-2.104zM14.81 72.167H8.503a4.211 4.211 0 01-4.206-4.209v-6.312a2.102 2.102 0 10-4.205 0v6.312c0 4.642 3.774 8.417 8.41 8.417h6.31a2.102 2.102 0 002.102-2.104c0-1.163-.94-2.104-2.103-2.104zM2.194 17.458a2.102 2.102 0 002.103-2.104V9.042a4.211 4.211 0 014.206-4.209h6.308a2.102 2.102 0 002.103-2.104c0-1.163-.94-2.104-2.103-2.104H8.503C3.866.625.092 4.4.092 9.042v6.312c0 1.163.94 2.104 2.102 2.104zm96.73 16.834H88.408V15.354a2.102 2.102 0 10-4.205 0v18.938h-4.206V15.354a2.102 2.102 0 10-4.206 0v18.938h-8.41V15.354a2.102 2.102 0 10-4.206 0v18.938H58.97V15.354a2.102 2.102 0 10-4.206 0v18.938h-8.41V15.354a2.102 2.102 0 10-4.206 0v18.938h-4.206V15.354a2.102 2.102 0 10-4.206 0v18.938h-4.205V15.354a2.102 2.102 0 10-4.206 0v18.938h-8.41V15.354a2.102 2.102 0 10-4.206 0v18.938H2.194a2.102 2.102 0 00-2.102 2.104c0 1.163.94 2.104 2.102 2.104h10.514v23.146a2.102 2.102 0 104.206 0V38.5h8.411v10.52a2.102 2.102 0 104.206 0V38.5h4.206v10.52a2.102 2.102 0 104.205 0V38.5h4.206v10.52a2.102 2.102 0 104.205 0V38.5h8.411v23.146a2.102 2.102 0 104.206 0V38.5h4.206v10.52a2.102 2.102 0 104.205 0V38.5h8.412v10.52a2.102 2.102 0 104.205 0V38.5h4.206v23.146a2.102 2.102 0 104.205 0V38.5h10.514a2.102 2.102 0 002.103-2.104c0-1.163-.94-2.104-2.103-2.104zM92.613.625h-6.308a2.102 2.102 0 00-2.102 2.104c0 1.163.94 2.104 2.103 2.104h6.308a4.211 4.211 0 014.206 4.209v6.312a2.102 2.102 0 104.205 0V9.042c0-4.642-3.774-8.417-8.411-8.417zM65.279 55.333a2.102 2.102 0 00-2.102 2.105v4.208a2.102 2.102 0 104.205 0v-4.209c0-1.162-.94-2.104-2.103-2.104zm33.645 4.209a2.102 2.102 0 00-2.103 2.104v6.312a4.211 4.211 0 01-4.205 4.209h-6.308a2.102 2.102 0 00-2.103 2.104c0 1.163.94 2.104 2.103 2.104h6.308c4.637 0 8.411-3.775 8.411-8.417v-6.312c0-1.163-.94-2.104-2.103-2.104zm-21.028-4.209a2.102 2.102 0 00-2.102 2.105v4.208a2.102 2.102 0 104.205 0v-4.209c0-1.162-.94-2.104-2.103-2.104z" fill="url(#paint0_linear_6_421)" stroke="#000" stroke-width="2" mask="url(#path-19-inside-1_6_421)"/><defs><linearGradient id="paint0_linear_6_421" x1="-2.884" y1="13.563" x2="104.027" y2="63.384" gradientUnits="userSpaceOnUse"><stop stop-color="#fff" stop-opacity=".2"/><stop offset="1" stop-color="#fff" stop-opacity="0"/></linearGradient></defs></svg>