<svg width="29" height="32" fill="none" xmlns="http://www.w3.org/2000/svg"><path d="M14.895 32L.904 24V8l13.99-8 13.992 8v16l-13.991 8zM1.396 23.714l13.499 7.717 13.499-7.717V8.286L14.894.569 1.397 8.286v15.428z" fill="#000"/><path d="M11.906 18.495c0-.5.678-.72.792-.75l6.663-.512.843-4.488H11.21l-.614-1.705-1.873-.535-.138.48 1.624.466 2.125 5.89c-.35.147-.929.488-.929 1.154 0 .734.598 1 1 1H19.4v-.5h-6.995c-.083 0-.5-.024-.5-.5zm-.514-5.25h8.207l-.659 3.516-6.114.47-1.434-3.986zm2.138 6.5a.874.874 0 00-.619 1.494.874.874 0 10.619-1.494zm0 1.25a.375.375 0 110-.75.375.375 0 010 .75zm3.997-1.25a.874.874 0 00-.618 1.494.874.874 0 10.618-1.494zm0 1.25a.375.375 0 110-.75.375.375 0 010 .75z" fill="#000"/></svg>