<svg width="20" height="20" fill="none" xmlns="http://www.w3.org/2000/svg"><g clip-path="url(#clip0_43_3150)" fill="#fff"><path d="M5.948 11.382l-.094-.117c-.118-.148-.19-.258-.207-.312 0 0 .034.039.094.113l.11.128.067.08.037.043.018.022.006.006.002.003 1.025-1.018-.01-.012c-.209-.246-.49-.577-.778-.908-.576-.664-1.18-1.34-1.289-1.38 0 0 .532.618 1.068 1.275.268.33.537.668.742.944.051.069.099.135.14.195l.004.006.002.003c-1.558 1.549-.432.43-.781.774l-.007-.011-.016-.022-.028-.042-.051-.078a.677.677 0 01-.104-.21l.089.105.102.119.063.074.008.01v.001l.669-.664-.002-.002-.005-.006-.017-.02-.036-.041a39.754 39.754 0 00-.74-.838c-.555-.61-1.157-1.222-1.347-1.232 0 0 .469.559.944 1.172.238.306.479.625.664.895.092.134.172.256.23.358-.159.084-.123-.132-.154-.143l.052.074c.025.013.115.184.027.063-.097-.125-.21-.262-.273-.304l.13.237-.29-.303-.13-.21s.342.582.313.677c0 0 .286.136-.58-.67 0 0-1.55-2.398-5.518-4.337 0 0-.296.226.146-.208l.339-.364.224-.29.266-.245s.163.015 1.292.846c.397.199.758.46 1.072.773 0 0 .943.977 1.903 2.005.48.515.965 1.043 1.337 1.471.093.107.18.207.257.3l.056.068.027.033.013.015.007.009.003.003v.002"/><path d="M1.59 16.701s.232.29-.206-.149l-.364-.337-.289-.227-.247-.263s.006-.153.745-1.178c.169-.363.4-.692.685-.973 0 0 3.542-3.368 3.957-3.473 0 0-2.395 1.94-2.461 2.145 0 0 2.26-1.884 2.558-1.904 0 0-2.223 1.797-2.223 2.153 0 0 2.046-1.654 2.45-1.7 0 0-.428.283-.501.4l.22-.112-.274.258-.195.113s.54-.294.631-.261c0 0 .117-.263-.61.514 0 0-2.218 1.344-3.875 4.994z"/><path d="M.45 16.936s-.277.243.164-.192l.345-.357.243-.273.26-.25s.116-.033.72.278c.218.033.42.131.579.282 0 0 1.718 1.858 1.699 2.148 0 0-.904-1.338-1.046-1.338 0 0 .895 1.25.838 1.47 0 0-.837-1.243-1.109-1.158 0 0 .77 1.144.709 1.437 0 0-.113-.254-.184-.281l.032.138-.131-.144-.04-.12s.095.336.048.414c0 0 .173.024-.246-.337.001 0-.491-1.348-2.88-1.717z"/><path d="M5.046 19.328s.232.29-.206-.149l-.364-.337-.288-.227-.248-.263s.005-.151.728-1.161c.164-.357.391-.681.671-.957 0 0 3.48-3.307 3.89-3.407 0 0-2.355 1.9-2.42 2.104 0 0 2.223-1.848 2.52-1.864 0 0-2.188 1.761-2.184 2.114 0 0 2.013-1.62 2.412-1.663 0 0-.421.277-.493.39l.216-.108-.27.254-.192.109s.533-.286.625-.253c0 0 .112-.26-.6.504-.002 0-2.187 1.312-3.797 4.914z"/><path d="M8.947 13.659s-.297.224.145-.21l.338-.364.223-.292.266-.244s.166.019 1.341.895a4.44 4.44 0 011.114.814s3.945 4.072 4.095 4.525c0 0-2.302-2.725-2.531-2.812 0 0 2.23 2.578 2.276 2.9 0 0-2.133-2.53-2.52-2.56 0 0 1.964 2.33 2.046 2.765 0 0-.342-.48-.474-.57l.139.246-.303-.316-.138-.219s.363.604.335.7c0 0 .296.145-.608-.697-.001 0-1.641-2.49-5.744-4.561zm10.955 1.228s.298-.225-.144.21l-.337.364-.223.293-.266.244s-.17-.021-1.375-.928a4.733 4.733 0 01-1.143-.845s-1.016-1.048-2.055-2.155a73.448 73.448 0 01-1.445-1.579 20.527 20.527 0 01-.278-.322l-.062-.072-.015-.018-.003-.003v-.002c2.2-2.188.61-.606 1.101-1.094h.002l.007.009.029.033.027.034.013.016.007.008.003.004v.002c-.482.48 1.08-1.072-1.08 1.075l-.048-.059c-.126-.158-.207-.273-.227-.332 0 0 .04.044.103.12l.117.139.073.085.01.011.005.006 1.016-1.008-.003-.003-.02-.023-.041-.049-.022-.025-.005-.006c.921-.917-1.257 1.246-1.032 1.024l.003.003.01.012.046.053.095.11c.065.078.134.156.206.239l.453.521c.625.713 1.278 1.437 1.395 1.485 0 0-.576-.664-1.16-1.367a29.793 29.793 0 01-.807-1.01l-.08-.106-.04-.051-.003-.007-.003-.003c-.71.703.966-.96.794-.788l.009.012.017.025.033.046.016.023.004.006.002.002a229.63 229.63 0 01-.76.754l-.007-.011-.056-.083a.835.835 0 01-.117-.222l.095.112.11.128.017.019.004.005.003.002c1.318-1.308.365-.363.659-.655l-.009-.01-.035-.039-.039-.043-.01-.011-.002-.003c.146-.146-1.277 1.269-.675.67l.005.006.02.023c.212.244.5.57.8.898.6.655 1.25 1.314 1.446 1.333 0 0-.508-.6-1.026-1.254a23.876 23.876 0 01-.725-.955 7.033 7.033 0 01-.14-.204l-.06-.092-.027-.044-.002-.002c.174-.173.049-.047.087-.086l.004.005.006.011.012.02.044.079c-.046.095-.033-.014-.05-.008a.509.509 0 01-.04-.105l.058.078.029.039.007.01c-.054.056-.02.01-.034.019l-.016-.022a1.064 1.064 0 00-.053-.068c.106.135.228.282.296.327l-.145-.25.313.324.143.225s-.378-.619-.352-.716c0 0-.302-.152.629.718.012 0 1.715 2.552 5.914 4.719zm-9.265-8.385s.232.288-.205-.15l-.364-.336-.288-.228-.249-.265s.003-.15.71-1.143c.16-.352.383-.671.657-.943 0 0 3.42-3.246 3.825-3.34 0 0-2.316 1.861-2.379 2.062 0 0 2.186-1.811 2.48-1.825 0 0-2.151 1.725-2.145 2.075 0 0 1.98-1.588 2.374-1.626 0 0-.414.27-.484.383l.213-.105-.264.248-.19.107s.526-.279.617-.245c0 0 .109-.257-.591.494-.001 0-2.155 1.281-3.717 4.837z"/><path d="M3.747 1.623s-.291.23.15-.204l.34-.362.228-.286.265-.246s.153.006 1.186.742c.364.166.695.396.979.68 0 0 3.39 3.517 3.496 3.93 0 0-1.954-2.379-2.16-2.445 0 0 1.897 2.245 1.917 2.542 0 0-1.809-2.208-2.167-2.208 0 0 1.665 2.03 1.71 2.432 0 0-.284-.424-.4-.497l.112.219-.26-.274-.113-.195s.295.536.262.627c0 0 .266.117-.517-.607 0 .002-1.353-2.201-5.028-3.848zm9.855 9.004s.226.294-.211-.144l-.366-.335-.293-.223-.246-.264s.018-.165.883-1.316c.21-.403.481-.771.805-1.09 0 0 4.037-3.86 4.489-4.003 0 0-2.705 2.249-2.791 2.474 0 0 2.556-2.18 2.878-2.221 0 0-2.51 2.082-2.536 2.464 0 0 2.311-1.917 2.745-1.996 0 0-.477.334-.564.463l.242-.134-.312.296-.217.134s.6-.352.696-.324c0 0 .144-.291-.691.594 0-.002-2.473 1.597-4.511 5.625z"/><path d="M14.585 1.077s-.28.24.16-.196l.345-.358.239-.273.262-.25s.123-.024.825.382c.251.063.482.191.668.372 0 0 2.096 2.234 2.105 2.55 0 0-1.141-1.573-1.297-1.588 0 0 1.12 1.473 1.08 1.712 0 0-1.054-1.46-1.347-1.395 0 0 .973 1.345.935 1.662 0 0-.152-.292-.234-.33l.05.156-.16-.173-.055-.137s.14.383.096.46c0 0 .195.045-.307-.397 0 .001-.684-1.54-3.365-2.197zM1.16 5.613s.24.282-.199-.156L.6 5.117l-.28-.234-.25-.262s-.016-.13.486-.92c.093-.284.252-.542.464-.753 0 0 2.613-2.445 2.958-2.48 0 0-1.812 1.362-1.842 1.53 0 0 1.703-1.331 1.96-1.308 0 0-1.684 1.26-1.636 1.569 0 0 1.549-1.16 1.892-1.146 0 0-.332.187-.38.28l.175-.069-.202.185-.156.072s.43-.183.512-.142c0 0 .066-.213-.46.364.002 0-1.738.87-2.68 3.81zm15 14.297s.24.282-.199-.155l-.36-.34-.28-.235-.25-.261s-.017-.13.469-.903a1.82 1.82 0 01.448-.739s2.552-2.383 2.89-2.415c0 0-1.772 1.322-1.8 1.489 0 0 1.666-1.294 1.92-1.269 0 0-1.648 1.225-1.597 1.53 0 0 1.516-1.127 1.855-1.11 0 0-.326.182-.372.271l.172-.064-.198.183-.152.068s.421-.175.505-.134c0 0 .061-.21-.45.354.002 0-1.706.838-2.601 3.73z"/></g><defs><clipPath id="clip0_43_3150"><path fill="#fff" d="M0 0h20v20H0z"/></clipPath></defs></svg>