<svg width="20" height="20" fill="none" xmlns="http://www.w3.org/2000/svg"><path d="M10 20l-8.75-5V5L10 0l8.75 5v10L10 20zm-8.442-5.178L10 19.645l8.442-4.823V5.178L10 .355 1.558 5.18v9.643z" fill="#000"/><path d="M10.427 13.75h-.852l-.32-.959a2.869 2.869 0 01-.7-.291l-.904.454-.603-.603.452-.906a2.866 2.866 0 01-.291-.7l-.959-.318v-.852l.959-.32c.066-.245.163-.48.291-.7l-.453-.905.602-.602.906.452c.22-.128.457-.226.703-.291l.315-.959h.852l.32.959c.245.066.48.163.7.291l.905-.453.602.602-.452.906c.128.22.226.457.291.703l.959.315v.852l-.959.32c-.066.245-.163.48-.291.7l.454.905-.603.602-.906-.452a2.84 2.84 0 01-.7.291l-.318.959zm-.625-.313h.4l.302-.91.085-.02a2.56 2.56 0 00.768-.32l.074-.046.86.43.282-.284-.43-.859.047-.074c.147-.237.255-.497.319-.769l.02-.085.909-.3v-.4l-.91-.303-.02-.085a2.564 2.564 0 00-.32-.769l-.047-.074.43-.86-.284-.283-.859.43-.074-.046a2.556 2.556 0 00-.769-.319l-.085-.02-.3-.909h-.4l-.303.91-.085.02a2.556 2.556 0 00-.769.32l-.074.047-.86-.43-.283.284.43.857-.047.074a2.561 2.561 0 00-.319.769l-.02.085-.907.302v.4l.91.303.02.085c.063.272.171.532.32.769l.046.074-.43.86.284.282.859-.43.074.047c.237.147.497.255.768.319l.086.02.302.909zM10 11.876a1.875 1.875 0 110-3.75 1.875 1.875 0 010 3.75zm0-3.438a1.563 1.563 0 100 3.126 1.563 1.563 0 000-3.126z" fill="#000"/></svg>