<svg width="52" height="44" fill="none" xmlns="http://www.w3.org/2000/svg"><path d="M9.92 17.038h13.37a1 1 0 100-2H9.92a1 1 0 000 2zm0 6.79h13.37a1 1 0 000-2H9.92a1 1 0 100 2z" fill="#000"/><path d="M50.86 13.508a5.85 5.85 0 00-1.37-7.47 4.61 4.61 0 00-8.36-3.76l-.69 1.18a1 1 0 00-1.22.42l-1.8 3.09H2.7a2.71 2.71 0 00-2.7 2.7v26.32a2.71 2.71 0 002.7 2.7h13.79v4.3a1 1 0 00.5.87 1 1 0 00.99 0l9.18-5.17h14.59a2.7 2.7 0 002.7-2.7v-19.37l4.21-7.29a1 1 0 00-.25-1.26l.1-.19a3.83 3.83 0 01.62 4.63l-3.11 5.38a3.34 3.34 0 001.22 4.56 1 1 0 001-1.73 1.34 1.34 0 01-.49-1.83l3.11-5.38zm-8.37 22.48a.7.7 0 01-.7.7H26.93a1 1 0 00-.49.13l-7.95 4.46v-3.59a1 1 0 00-1-1H2.7a.71.71 0 01-.7-.7V9.668a.71.71 0 01.7-.7h33.56l-8 13.79a1.07 1.07 0 00-.11.72l1.19 5.14H9.92a1 1 0 000 2h20.82c.063.005.127.005.19 0l6.25-1.91a1 1 0 00.57-.45l4.74-8.18v15.91zm-11.12-7.64l-.71-3.08 3.74 2.16-3.03.92zm5.15-2l-6-3.46 9.97-17.15 6 3.46-9.97 17.15zm10.84-20.46l-.67 1.15-4.52-2.61.67-1.15a2.611 2.611 0 114.52 2.61z" fill="#000"/></svg>