<svg width="51" height="51" fill="none" xmlns="http://www.w3.org/2000/svg"><path d="M25.5 0C11.418 0 0 11.418 0 25.5S11.418 51 25.5 51C39.585 51 51 39.582 51 25.5S39.583 0 25.5 0z" fill="#84D4F0"/><path d="M36.371 36.965c0 .973-.598 2.05-1.573 2.05H14.045v-27.03h20.753c.973 0 1.573.498 1.573 1.474v23.506z" fill="#fff"/><path d="M34.798 39.525H14.045a.51.51 0 01-.51-.51v-27.03a.51.51 0 01.51-.51h20.753c1.285 0 2.084.76 2.084 1.984v23.508c0 1.231-.797 2.56-2.084 2.56v-.002zm-20.245-1.02h20.245c.628 0 1.063-.812 1.063-1.54V13.457c0-.414-.11-.964-1.063-.964H14.553v26.012z" fill="#2C4C76"/><path d="M38.722 14.924H36.37v3.525h2.35v-3.526z" fill="#fff"/><path d="M38.722 18.959H36.37a.51.51 0 01-.51-.51v-3.526a.51.51 0 01.51-.51h2.35a.51.51 0 01.51.51v3.526a.508.508 0 01-.51.51zm-1.841-1.02h1.33v-2.505h-1.33v2.505z" fill="#2C4C76"/><path d="M38.722 18.449H36.37v3.525h2.35v-3.525z" fill="#fff"/><path d="M38.722 22.484H36.37a.508.508 0 01-.511-.51v-3.525a.51.51 0 01.51-.51h2.35a.51.51 0 01.51.51v3.525a.51.51 0 01-.51.51h.002zm-1.841-1.02h1.33v-2.505h-1.33v2.505z" fill="#2C4C76"/><path d="M38.722 21.974H36.37v3.525h2.35v-3.525z" fill="#fff"/><path d="M38.722 26.009H36.37a.511.511 0 01-.511-.509v-3.526a.51.51 0 01.51-.51h2.35a.51.51 0 01.51.51V25.5a.51.51 0 01-.51.51l.002-.001zm-1.841-1.02h1.33v-2.505h-1.33v2.505z" fill="#2C4C76"/><path d="M38.722 25.499H36.37v3.526h2.35V25.5z" fill="#fff"/><path d="M38.722 29.535H36.37a.51.51 0 01-.51-.51V25.5a.51.51 0 01.51-.51h2.35a.51.51 0 01.51.51v3.526a.509.509 0 01-.51.51zm-1.841-1.02h1.33V26.01h-1.33v2.506z" fill="#2C4C76"/><path d="M38.722 29.025H36.37v3.525h2.35v-3.525z" fill="#fff"/><path d="M38.722 33.06H36.37a.51.51 0 01-.51-.51v-3.525a.51.51 0 01.51-.51h2.35a.51.51 0 01.51.51v3.525a.508.508 0 01-.51.51zm-1.841-1.02h1.33v-2.505h-1.33v2.505z" fill="#2C4C76"/><path d="M38.722 32.55H36.37v3.526h2.35V32.55z" fill="#FC6E51"/><path d="M38.722 36.587H36.37a.51.51 0 01-.51-.51V32.55a.51.51 0 01.51-.51h2.35a.51.51 0 01.51.51v3.526a.509.509 0 01-.51.51zm-1.841-1.02h1.33V33.06h-1.33v2.506zm-24.089-9.555a.507.507 0 01-.34-.13 2.33 2.33 0 113.885-1.739.51.51 0 11-1.02 0 1.311 1.311 0 10-2.184.98.51.51 0 01-.34.89v-.001z" fill="#2C4C76"/><path d="M12.813 23.455l-.336-.299a2.328 2.328 0 113.86-1.746.51.51 0 11-1.02 0 1.312 1.312 0 10-2.624 0c0 .244.068.483.199.688a2.346 2.346 0 012.639.3.511.511 0 01-.674.766 1.276 1.276 0 00-1.71 0l-.336.299.002-.008z" fill="#2C4C76"/><path d="M12.813 20.719l-.335-.293a2.328 2.328 0 113.859-1.747.51.51 0 11-1.02 0 1.312 1.312 0 10-2.624 0c0 .243.068.482.199.687a2.35 2.35 0 012.638.294.51.51 0 01-.67.768 1.283 1.283 0 00-1.713 0l-.336.299.002-.008z" fill="#2C4C76"/><path d="M12.813 17.991l-.336-.298a2.328 2.328 0 113.86-1.748.51.51 0 11-1.02 0 1.312 1.312 0 10-2.624 0c-.001.245.068.484.199.69a2.347 2.347 0 012.64.299.51.51 0 11-.674.767 1.279 1.279 0 00-1.71 0l-.336.298.001-.008zm1.192 19.393a2.332 2.332 0 112.332-2.33.51.51 0 01-1.02 0 1.312 1.312 0 10-1.312 1.31.51.51 0 110 1.02z" fill="#2C4C76"/><path d="M12.813 34.365l-.336-.299a2.328 2.328 0 113.86-1.745.51.51 0 01-1.02 0 1.312 1.312 0 10-2.624 0c0 .244.069.483.199.689a2.343 2.343 0 012.639.298.51.51 0 11-.674.767 1.276 1.276 0 00-1.708-.009l-.336.3z" fill="#2C4C76"/><path d="M12.813 31.632l-.335-.293a2.327 2.327 0 113.859-1.749.51.51 0 01-1.02 0 1.312 1.312 0 10-2.624 0c0 .243.068.482.199.687a2.348 2.348 0 012.638.294.511.511 0 11-.67.767 1.282 1.282 0 00-1.713 0l-.336.299.002-.005z" fill="#2C4C76"/><path d="M12.813 28.903l-.336-.3a2.328 2.328 0 113.86-1.746.51.51 0 11-1.02 0 1.312 1.312 0 10-2.624 0 1.27 1.27 0 00.199.689 2.346 2.346 0 012.64.299.51.51 0 01-.674.766 1.279 1.279 0 00-1.71 0l-.336.299.001-.007z" fill="#2C4C76"/><path d="M31.876 24.989a6.375 6.375 0 11-12.75 0 6.375 6.375 0 0112.75 0z" fill="#FC6E51"/><path d="M29.413 26.942c.048.084.033.48-.15.934-.182.454-1 .866-1.364.886-.363.02-.371.283-2.347-.58-1.975-.864-3.162-2.967-3.257-3.103-.095-.137-.765-1.096-.728-2.068a2.216 2.216 0 01.746-1.62.72.72 0 01.534-.226c.133 0 .263.026.377.03.115.004.282-.056.433.345.15.4.508 1.385.553 1.486a.368.368 0 010 .346 1.35 1.35 0 01-.21.321c-.1.113-.217.25-.308.336-.092.086-.21.199-.1.398.279.518.63.992 1.046 1.408.452.432.976.782 1.549 1.036.192.106.31.1.43-.033.119-.133.513-.558.652-.748.138-.19.269-.156.447-.083s1.136.589 1.329.688c.192.1.322.163.368.247z" fill="#fff"/></svg>