<svg width="29" height="32" fill="none" xmlns="http://www.w3.org/2000/svg"><path d="M14.858 32L.868 24V8l13.99-8L28.85 8v16l-13.99 8zM1.36 23.714l13.498 7.717 13.5-7.717V8.286L14.857.569 1.36 8.286v15.428z" fill="#000"/><path d="M14.858 21.285l-.156-.125c-2.79-2.223-4.095-3.41-4.95-4.969-.805-1.467-.706-2.61-.481-3.308a3.125 3.125 0 011.653-1.868 3.041 3.041 0 012.81.09c.457.254.844.617 1.124 1.058a3.129 3.129 0 012.618-1.448c.456 0 .907.102 1.318.3a3.125 3.125 0 011.652 1.868c.226.7.325 1.84-.48 3.308-.856 1.563-2.16 2.743-4.952 4.97l-.155.124zm-2.617-10.07c-.382 0-.758.085-1.103.25a2.624 2.624 0 00-1.39 1.57c-.28.868-.125 1.875.442 2.914.836 1.524 2.135 2.67 4.67 4.695 2.533-2.025 3.833-3.17 4.668-4.695.569-1.038.723-2.045.443-2.914a2.628 2.628 0 00-1.391-1.57 2.548 2.548 0 00-1.103-.25 2.64 2.64 0 00-2.39 1.573l-.229.506-.228-.505a2.64 2.64 0 00-2.39-1.574z" fill="#231F20"/></svg>