<svg width="24" height="24" fill="none" xmlns="http://www.w3.org/2000/svg"><path d="M23.5 12.073c0 5.574-3.915 10.225-9.124 11.326v-7.336H17.1l.065-.425.532-3.49.088-.575h-3.409V9.807c0-.405.1-.744.298-.975.186-.217.521-.41 1.157-.41h2.014V4.53l-.416-.07-.084.492.084-.493h0-.005l-.013-.003-.049-.008a20.5 20.5 0 00-.81-.11c-.518-.06-1.21-.122-1.894-.122-1.473 0-2.745.451-3.65 1.362-.904.91-1.382 2.223-1.382 3.835v2.16H6.577v4.49h3.049v7.336C4.416 22.298.5 17.647.5 12.073.5 5.677 5.65.5 12 .5s11.5 5.177 11.5 11.573z" fill="#000" stroke="#000"/></svg>