<svg width="59" height="62" fill="none" xmlns="http://www.w3.org/2000/svg"><path d="M0 2.8c0 1.6 4.4 7.6 10.667 14.267l10.666 11.6v24l7.2 4.4c4 2.267 7.6 4.267 8 4.267.4 0 .8-7.334.8-16.4V28.667L48 17.067C54.267 10.4 58.667 4.4 58.667 2.8c0-2.8-.534-2.8-29.334-2.8S0 0 0 2.8zm55.733 1.067c-.133.8-4.8 6.133-10.133 12-9.733 10.666-9.867 10.8-16.267 10.8-6.4 0-6.533-.134-16.266-10.8C7.733 10 3.2 4.667 2.933 3.867c-.266-.667 10-1.2 26.4-1.2s26.667.533 26.4 1.2zM34.667 43.334v14.133L29.333 54.4 24 51.334V29.333h10.667v14z" fill="#000"/></svg>