<svg width="87" height="73" fill="none" xmlns="http://www.w3.org/2000/svg"><path d="M33.285 67.16c-2.46 0-2.039-.93-2.889-3.265l-7.223-23.78L78.785 7.122l-45.5 60.038z" fill="#ECEFF1"/><path d="M33.285 67.16c1.897 0 2.736-.868 3.791-1.897l10.112-9.834-12.614-7.604-1.289 19.335z" fill="#CFD8DC"/><path d="M34.574 47.83l30.561 22.58c3.492 1.922 6.003.927 6.874-3.24L84.45 8.548c1.274-5.107-1.945-7.422-5.284-5.91l-73.05 28.17c-4.988 2-4.954 4.784-.91 6.021l18.746 5.852L67.35 15.3c2.05-1.242 3.93-.574 2.39.797L34.573 47.831z" fill="#fff"/><path d="M68.204 72.776c-1.143 0-2.398-.375-3.754-1.123L33.729 48.97a1.428 1.428 0 01-.577-1.075c-.02-.427.15-.839.469-1.126l36.388-32.746a1.421 1.421 0 111.903 2.113L36.82 47.72l29.16 21.544c.77.412 2.073.936 3 .506.944-.432 1.41-1.811 1.638-2.892l12.441-58.63c.484-1.936.25-3.494-.611-4.211-.657-.546-1.635-.586-2.693-.108L6.625 32.133c-2.244.902-2.949 1.829-2.937 2.136.008.202.491.76 1.933 1.2l18.13 5.659L43.653 28.57a1.42 1.42 0 111.516 2.403L24.71 43.88a1.434 1.434 0 01-1.183.156L4.782 38.185C1.455 37.167.886 35.369.847 34.388c-.057-1.345.72-3.29 4.74-4.9l73.07-28.175c1.982-.905 4.11-.711 5.614.543 1.743 1.453 2.312 4.018 1.561 7.035l-12.43 58.576c-.523 2.497-1.61 4.143-3.233 4.888a4.636 4.636 0 01-1.965.421z" fill="#455A64"/></svg>