<svg width="80" height="80" fill="none" xmlns="http://www.w3.org/2000/svg"><path fill-rule="evenodd" clip-rule="evenodd" d="M4 21.667C4 12.462 11.462 5 20.667 5h36.666C66.538 5 74 12.462 74 21.667v36.666C74 67.538 66.538 75 57.333 75H20.667C11.462 75 4 67.538 4 58.333V21.667zM20.667 8.333c-7.364 0-13.334 5.97-13.334 13.334v36.666c0 7.364 5.97 13.334 13.334 13.334h36.666c7.364 0 13.334-5.97 13.334-13.334V21.667c0-7.364-5.97-13.334-13.334-13.334H20.667z" fill="#fff"/><path fill-rule="evenodd" clip-rule="evenodd" d="M39 25c-8.284 0-15 6.716-15 15 0 8.284 6.716 15 15 15 8.284 0 15-6.716 15-15 0-8.284-6.716-15-15-15zM20.667 40c0-10.125 8.208-18.333 18.333-18.333 10.125 0 18.333 8.208 18.333 18.333 0 10.125-8.208 18.333-18.333 18.333-10.125 0-18.333-8.208-18.333-18.333zM59 18.333a1.667 1.667 0 100 3.334 1.667 1.667 0 000-3.334zM54 20a5 5 0 1110 0 5 5 0 01-10 0z" fill="#fff"/></svg>