<svg width="70" height="70" fill="none" xmlns="http://www.w3.org/2000/svg"><g clip-path="url(#clip0_6_2535)" fill-rule="evenodd" clip-rule="evenodd" fill="#fff"><path d="M0 16.667C0 7.462 7.462 0 16.667 0h36.666C62.538 0 70 7.462 70 16.667v36.666C70 62.538 62.538 70 53.333 70H16.667C7.462 70 0 62.538 0 53.333V16.667zM16.667 3.333c-7.364 0-13.334 5.97-13.334 13.334v36.666c0 7.364 5.97 13.334 13.334 13.334h36.666c7.364 0 13.334-5.97 13.334-13.334V16.667c0-7.364-5.97-13.334-13.334-13.334H16.667z"/><path d="M35 20c-8.284 0-15 6.716-15 15 0 8.284 6.716 15 15 15 8.284 0 15-6.716 15-15 0-8.284-6.716-15-15-15zM16.667 35c0-10.125 8.208-18.333 18.333-18.333 10.125 0 18.333 8.208 18.333 18.333 0 10.125-8.208 18.333-18.333 18.333-10.125 0-18.333-8.208-18.333-18.333zM55 13.333a1.667 1.667 0 100 3.334 1.667 1.667 0 000-3.334zM50 15a5 5 0 1110 0 5 5 0 01-10 0z"/></g><defs><clipPath id="clip0_6_2535"><path fill="#fff" d="M0 0h70v70H0z"/></clipPath></defs></svg>