<svg width="23" height="24" fill="none" xmlns="http://www.w3.org/2000/svg"><path fill-rule="evenodd" clip-rule="evenodd" d="M0 5.714C0 2.558 2.453 0 5.478 0h12.047c3.025 0 5.477 2.558 5.477 5.714v12.572C23 21.442 20.549 24 17.524 24H5.477C2.452 24 0 21.442 0 18.286V5.714zm5.477-4.571c-2.42 0-4.381 2.047-4.381 4.571v12.572c0 2.524 1.961 4.571 4.38 4.571h12.048c2.42 0 4.381-2.047 4.381-4.571V5.714c0-2.524-1.961-4.571-4.38-4.571H5.476z" fill="#000"/><path fill-rule="evenodd" clip-rule="evenodd" d="M11.5 7.09c-2.936 0-5.317 2.2-5.317 4.91 0 2.711 2.381 4.91 5.319 4.91 2.937 0 5.318-2.199 5.318-4.91 0-2.711-2.381-4.91-5.318-4.91zM5 12c0-3.314 2.91-6 6.5-6S18 8.686 18 12s-2.91 6-6.5 6S5 15.314 5 12zm13.5-8a.5.5 0 100 1 .5.5 0 000-1zm-1.5.5a1.5 1.5 0 113 0 1.5 1.5 0 01-3 0z" fill="#000"/></svg>