<svg width="110" height="96" fill="none" xmlns="http://www.w3.org/2000/svg"><path d="M41.23 91.702c-.776 2.954-2.449 4.294-5.294 4.294-9.259.013-18.514 0-27.773.004-1.93 0-3.625-.65-5.15-1.789-1.26-.934-1.778-2.234-1.79-3.796-.08-8.575-.227-17.15-.249-25.724-.013-5.031.144-10.067.266-15.102.096-4.02 3.472-7.288 7.45-7.283 9.874.008 19.752.004 29.625.048.854 0 1.438-.24 1.904-.934 2.457-3.657 4.924-7.3 7.381-10.953.915-1.361 1.708-2.823 2.75-4.071 2.888-3.46 3.224-7.392 2.575-11.647-.419-2.727-.615-5.493-.772-8.251-.096-1.615.68-2.91 1.94-3.967 3.973-3.342 9.594-3.39 14.195 0 5.198 3.831 7.804 9.186 8.688 15.456.771 5.472-.009 10.835-1.407 16.128-.092.354-.183.707-.27 1.06-.014.07 0 .145 0 .358h1.141c7.843-.004 15.686-.004 23.525-.008 4.98-.005 9.01 3.141 9.803 7.767.567 3.273-.684 6.017-2.823 8.391-.519.576-.628 1.021-.44 1.802.997 4.15-.135 7.868-2.562 11.232-.541.746-.776 1.357-.658 2.344.505 4.228-.541 8.085-3.103 11.524-.322.432-.549 1.13-.466 1.654 1.194 7.475-4.039 12.096-10.108 12.624-3.93.344-7.904.2-11.86.21-10.31.021-20.619-.01-30.928.017-1.96.004-3.821-.245-5.59-1.388zm58.552-24.668h-1.355c-5.447.005-10.894.01-16.34.005-.654 0-1.32.048-1.956-.07-.92-.175-1.477-.777-1.425-1.772.052-.977.61-1.531 1.573-1.64.396-.048.797-.035 1.198-.035 6.026.004 12.052.013 18.082-.009.392 0 .937-.11 1.155-.375 2.035-2.51 3.094-5.32 2.471-8.623-.166-.877-.571-1.156-1.469-1.148-5.738.04-11.477.022-17.215.018-1.83 0-2.723-.598-2.688-1.798.034-1.156.88-1.702 2.675-1.702 6.1-.008 12.2-.004 18.3-.021.423 0 .928-.005 1.251-.219 2.496-1.684 3.097-5.869 1.198-8.216-1.412-1.742-3.286-2.405-5.482-2.4-8.387.021-16.775.013-25.162.017-3.364 0-3.743-.471-2.915-3.713 1.259-4.918 2.4-9.853 2.043-14.994-.335-4.791-1.773-9.16-5.028-12.768-2.244-2.487-4.902-4.246-8.444-4.023-3.246.21-4.898 2.003-4.627 5.193.226 2.648.623 5.284.971 7.92.506 3.861-.322 7.378-2.592 10.56a118.812 118.812 0 00-3.12 4.616c-2.95 4.595-5.7 9.33-9.355 13.427-.257.284-.375.786-.375 1.187a15256.17 15256.17 0 00-.008 39.967c0 .34.048.798.261 1.008 1.194 1.152 2.527 2.13 4.279 2.13 14.017.012 28.03.017 42.047 0 2.108-.005 4.1-.525 5.864-1.738 2.432-1.675 3.5-5.048 2.37-7.557-4.579 0-9.189.004-13.799 0-1.812 0-3.629.026-5.446-.022-.989-.03-1.69-.755-1.677-1.663.008-.964.531-1.566 1.477-1.75.348-.07.719-.07 1.08-.07 6.174-.004 12.344.005 18.518-.021.458-.005 1.102-.127 1.342-.44 2.061-2.698 2.78-5.765 2.323-9.26zM37.574 45.836h-1.46L8.892 45.81c-2.314 0-4.165 1.75-4.17 4.071-.026 13.24-.03 26.483-.026 39.722.004 1.68.292 2.06 1.895 2.597.536.183 1.133.261 1.704.274 1.778.035 3.556.013 5.333.018 7.442 0 14.88.004 22.322 0 1.338 0 1.682-.354 1.686-1.68.005-1.423 0-2.845 0-4.268V47.145c0-.393-.035-.786-.06-1.31z" fill="#000"/></svg>