<svg width="72" height="104" fill="none" xmlns="http://www.w3.org/2000/svg"><path d="M71.308 90.82L57.48 54.65l10.533-5.02c1.648-.548 2.197-2.196 1.648-3.294l-4.394-12.082 4.394-12.082c.549-1.098-.55-2.746-1.648-3.295L56.48 13.386 50.99 1.853C50.439.206 48.792-.343 47.693.206L35.612 4.599 23.53.206c-1.098-.55-2.746.55-3.295 1.647l-5.492 11.533L3.21 18.878c-1.647.55-2.196 2.197-1.647 3.295l4.393 12.082-4.393 12.082c-.55 1.098.549 2.746 1.647 3.295l10.38 4.942L.465 90.271c0 1.098 0 2.196.549 2.746.549 1.098 1.647 1.098 2.746 1.098l13.18-2.197 8.238 10.435c.549.549 1.098 1.098 2.196 1.098h.55c1.098 0 1.647-.549 2.196-1.648l5.563-15.124 5.97 15.674C42.2 103.451 42.75 104 43.848 104h.549c1.098 0 1.647-.549 2.196-1.098l8.238-10.434 13.18 2.196c1.099 0 2.197-.55 2.746-1.098.55-.55 1.1-1.648.55-2.746zM8.153 22.722l10.434-4.942c.55 0 1.099-.55 1.099-1.099l4.942-10.434 10.434 3.844h1.648l10.434-3.844 4.943 10.434c0 .55.549 1.099 1.098 1.099l10.434 4.942-3.844 10.434v1.648l3.844 10.434-10.434 4.943c-.55 0-1.099.549-1.099 1.098l-4.942 10.434-10.434-3.844h-1.648l-10.434 3.844-4.942-10.434c0-.55-.55-1.098-1.099-1.098L8.153 45.238l3.844-10.434v-1.648L8.153 22.722zm18.672 73.04l-6.59-8.237c-.55-1.099-1.648-1.099-2.746-1.099L7.055 88.074l10.17-27.739 3.01 6.321c.549 1.648 2.196 2.197 3.295 1.648l12.082-4.394 2.553.928-11.34 30.924zm26.91-9.885c-1.099 0-2.197.55-2.746 1.099l-6.59 8.237-5.893-16.211 4.553-12.384 4.635 1.686h1.098c.55 0 1.647-.55 2.197-1.648l3.124-6.557 10.055 27.426-10.433-1.648z" fill="#000"/></svg>