<svg width="21" height="25" fill="none" xmlns="http://www.w3.org/2000/svg"><mask id="path-1-inside-1_9_4887" fill="#fff"><path d="M13.625 15.146v-1.607a6.25 6.25 0 003.125-5.414V6.25a6.25 6.25 0 00-12.5 0v1.875a6.25 6.25 0 003.125 5.414v1.607A8.44 8.44 0 00.5 23.437 1.563 1.563 0 002.063 25h16.875a1.563 1.563 0 001.562-1.563 8.44 8.44 0 00-6.875-8.292zm-6.25 1.49l1.728.864-1.728.864v-1.728zm6.25 0v1.728l-1.727-.864 1.727-.864zM10.627 1.251h.042l.083.003.05.003.074.005.053.005.072.006.054.006.069.008.055.007.068.01.054.008.067.012.055.01.066.013.054.01.065.015.054.013.065.016.053.014.064.017.053.015.063.02.052.015.064.02.048.018.064.022.049.019.063.024.05.019.063.026.048.02.064.028.046.02.063.03.044.022.064.031.043.022.064.033.041.022.065.037.039.022.066.04.036.02.069.044.031.02.074.048.025.017.081.057.016.01c.13.093.256.192.376.296l.005.005.083.074.016.014.07.066.02.02.065.063.023.023.063.062.025.026.055.059.025.028.053.06.026.03.05.06.025.032.049.06.026.033.049.061.025.034.045.061.025.035.043.063.024.036.042.063.023.036.04.064.023.038.039.065.022.038.037.066.02.038.036.067.02.04.034.068.019.039.032.07.018.038.031.071.017.039.03.073.015.038.03.076.013.036c.01.026.02.053.028.08l.012.034c.01.029.02.057.028.086l.01.029.029.097.005.018c.033.117.062.237.087.357 0 .01.004.02.006.03l.017.09c0 .014.005.027.007.04.005.028.01.055.013.081 0 .016.005.032.007.05l.011.074c0 .017.004.034.006.052l.009.071.005.055.006.069.004.057c.001.019 0 .033.004.049a4.453 4.453 0 01-.77.063c-2.75 0-6.017-2.056-6.05-2.076l-.687-.44-.68.457-1.665 1.11.005-.018c.014-.06.03-.12.048-.18l.006-.019.053-.17.008-.023.061-.171.013-.034c.022-.056.044-.112.068-.167l.012-.028a3.99 3.99 0 01.074-.162l.005-.01c.026-.056.054-.11.082-.164l.017-.031c.027-.052.056-.103.086-.154l.018-.032c.031-.052.062-.103.095-.153L6.3 3.54c.032-.049.065-.096.097-.143l.019-.026c.032-.048.067-.095.103-.141l.024-.031a6.3 6.3 0 01.11-.137l.018-.023.11-.127.015-.017c.04-.044.08-.087.121-.129l.028-.028c.04-.041.082-.082.124-.121l.026-.025.133-.12.008-.006c.044-.039.09-.076.136-.113l.027-.022c.045-.036.092-.071.138-.106l.031-.023.147-.102.02-.013a2.24 2.24 0 01.142-.091l.024-.015c.05-.031.101-.06.153-.09l.033-.019c.052-.029.104-.056.157-.083l.028-.014c.052-.026.105-.052.159-.076l.012-.006a5.12 5.12 0 01.168-.072l.034-.014a5.18 5.18 0 01.166-.064l.034-.011.176-.059.013-.004c.057-.017.115-.034.173-.049l.029-.007c.059-.016.118-.03.178-.043l.036-.008c.06-.013.12-.025.181-.036l.026-.004c.06-.01.12-.02.18-.028l.019-.002c.062-.009.125-.015.189-.021l.036-.003c.063-.006.125-.01.188-.013h.033a5.374 5.374 0 01.323-.004zM5.5 8.125V6.667L8 5s3.56 2.272 6.72 2.272c.262.002.523-.015.782-.048v.901a5 5 0 11-10 0H5.5zm5 6.25a6.25 6.25 0 001.875-.286v1.454L10.5 16.666l-1.875-1.123v-1.454a6.25 6.25 0 001.875.286zm8.438 9.375H2.063a.313.313 0 01-.313-.313 7.198 7.198 0 014.375-6.613v2.551a.625.625 0 00.904.56l3.471-1.736 3.47 1.736a.625.625 0 00.905-.56v-2.551a7.198 7.198 0 014.375 6.613.313.313 0 01-.313.313z"/></mask><path d="M13.625 15.146v-1.607a6.25 6.25 0 003.125-5.414V6.25a6.25 6.25 0 00-12.5 0v1.875a6.25 6.25 0 003.125 5.414v1.607A8.44 8.44 0 00.5 23.437 1.563 1.563 0 002.063 25h16.875a1.563 1.563 0 001.562-1.563 8.44 8.44 0 00-6.875-8.292zm-6.25 1.49l1.728.864-1.728.864v-1.728zm6.25 0v1.728l-1.727-.864 1.727-.864zM10.627 1.251h.042l.083.003.05.003.074.005.053.005.072.006.054.006.069.008.055.007.068.01.054.008.067.012.055.01.066.013.054.01.065.015.054.013.065.016.053.014.064.017.053.015.063.02.052.015.064.02.048.018.064.022.049.019.063.024.05.019.063.026.048.02.064.028.046.02.063.03.044.022.064.031.043.022.064.033.041.022.065.037.039.022.066.04.036.02.069.044.031.02.074.048.025.017.081.057.016.01c.13.093.256.192.376.296l.005.005.083.074.016.014.07.066.02.02.065.063.023.023.063.062.025.026.055.059.025.028.053.06.026.03.05.06.025.032.049.06.026.033.049.061.025.034.045.061.025.035.043.063.024.036.042.063.023.036.04.064.023.038.039.065.022.038.037.066.02.038.036.067.02.04.034.068.019.039.032.07.018.038.031.071.017.039.03.073.015.038.03.076.013.036c.01.026.02.053.028.08l.012.034c.01.029.02.057.028.086l.01.029.029.097.005.018c.033.117.062.237.087.357 0 .01.004.02.006.03l.017.09c0 .014.005.027.007.04.005.028.01.055.013.081 0 .016.005.032.007.05l.011.074c0 .017.004.034.006.052l.009.071.005.055.006.069.004.057c.001.019 0 .033.004.049a4.453 4.453 0 01-.77.063c-2.75 0-6.017-2.056-6.05-2.076l-.687-.44-.68.457-1.665 1.11.005-.018c.014-.06.03-.12.048-.18l.006-.019.053-.17.008-.023.061-.171.013-.034c.022-.056.044-.112.068-.167l.012-.028a3.99 3.99 0 01.074-.162l.005-.01c.026-.056.054-.11.082-.164l.017-.031c.027-.052.056-.103.086-.154l.018-.032c.031-.052.062-.103.095-.153L6.3 3.54c.032-.049.065-.096.097-.143l.019-.026c.032-.048.067-.095.103-.141l.024-.031a6.3 6.3 0 01.11-.137l.018-.023.11-.127.015-.017c.04-.044.08-.087.121-.129l.028-.028c.04-.041.082-.082.124-.121l.026-.025.133-.12.008-.006c.044-.039.09-.076.136-.113l.027-.022c.045-.036.092-.071.138-.106l.031-.023.147-.102.02-.013a2.24 2.24 0 01.142-.091l.024-.015c.05-.031.101-.06.153-.09l.033-.019c.052-.029.104-.056.157-.083l.028-.014c.052-.026.105-.052.159-.076l.012-.006a5.12 5.12 0 01.168-.072l.034-.014a5.18 5.18 0 01.166-.064l.034-.011.176-.059.013-.004c.057-.017.115-.034.173-.049l.029-.007c.059-.016.118-.03.178-.043l.036-.008c.06-.013.12-.025.181-.036l.026-.004c.06-.01.12-.02.18-.028l.019-.002c.062-.009.125-.015.189-.021l.036-.003c.063-.006.125-.01.188-.013h.033a5.374 5.374 0 01.323-.004zM5.5 8.125V6.667L8 5s3.56 2.272 6.72 2.272c.262.002.523-.015.782-.048v.901a5 5 0 11-10 0H5.5zm5 6.25a6.25 6.25 0 001.875-.286v1.454L10.5 16.666l-1.875-1.123v-1.454a6.25 6.25 0 001.875.286zm8.438 9.375H2.063a.313.313 0 01-.313-.313 7.198 7.198 0 014.375-6.613v2.551a.625.625 0 00.904.56l3.471-1.736 3.47 1.736a.625.625 0 00.905-.56v-2.551a7.198 7.198 0 014.375 6.613.313.313 0 01-.313.313z" fill="#fff" stroke="#fff" stroke-width="2" mask="url(#path-1-inside-1_9_4887)"/></svg>