<svg width="30" height="30" fill="none" xmlns="http://www.w3.org/2000/svg"><g clip-path="url(#clip0_42_318)"><mask id="path-1-inside-1_42_318" fill="#fff"><path d="M24.333 30a.334.334 0 01-.193-.062L15 23.405l-9.14 6.533a.333.333 0 01-.517-.351l2.62-10.491-7.865-7.873a.334.334 0 01.234-.57h10.436L14.688.195c.098-.26.527-.26.624 0l3.92 10.458h10.435a.334.334 0 01.234.57l-7.865 7.871 2.62 10.491a.332.332 0 01-.323.415zM15 22.662a.33.33 0 01.194.062l8.595 6.144-2.446-9.795a.332.332 0 01.088-.316l7.431-7.437H19a.333.333 0 01-.312-.216L15 1.262l-3.688 9.842a.334.334 0 01-.312.217H1.138l7.43 7.436a.333.333 0 01.088.316l-2.445 9.795 8.597-6.145a.334.334 0 01.192-.061z"/></mask><path d="M24.333 30a.334.334 0 01-.193-.062L15 23.405l-9.14 6.533a.333.333 0 01-.517-.351l2.62-10.491-7.865-7.873a.334.334 0 01.234-.57h10.436L14.688.195c.098-.26.527-.26.624 0l3.92 10.458h10.435a.334.334 0 01.234.57l-7.865 7.871 2.62 10.491a.332.332 0 01-.323.415zM15 22.662a.33.33 0 01.194.062l8.595 6.144-2.446-9.795a.332.332 0 01.088-.316l7.431-7.437H19a.333.333 0 01-.312-.216L15 1.262l-3.688 9.842a.334.334 0 01-.312.217H1.138l7.43 7.436a.333.333 0 01.088.316l-2.445 9.795 8.597-6.145a.334.334 0 01.192-.061z" fill="#898989"/><path d="M24.333 30v1l.001-2v1zm-.193-.062l-.582.813.582-.813zM15 23.405l.582-.814-.582-.416-.582.416.582.814zm-9.14 6.533l.579.815.002-.001-.582-.814zm-.517-.351l-.97-.243-.001.003.97.24zm2.62-10.491l.97.242.138-.549-.4-.4-.708.707zM.098 11.223l-.708.706.708-.706zm.234-.57v-1H.328l.004 1zm10.436 0v1h.693l.243-.649-.936-.35zM14.688.195l-.936-.352v.001l.936.351zm.624 0l-.936.35v.001l.936-.35zm3.92 10.458l-.937.35.243.65h.693v-1zm10.435 0l.004-1h-.004v1zm.234.57l.707.706-.707-.707zm-7.865 7.871l-.708-.706-.4.4.138.549.97-.243zm2.62 10.491l-.97.243.97-.243zm-.323.415v-1 2-1zM15 22.662v-1h-.004l.004 1zm.194.062l.581-.814-.581.814zm8.595 6.144l-.582.814 2.21 1.58-.658-2.636-.97.242zm-2.446-9.795l.97-.242v-.002l-.97.244zm.088-.316l-.708-.707.708.707zm7.431-7.437l.708.707 1.705-1.707h-2.413v1zm-9.862 0v-1 1zm-.312-.216l-.936.35v.001l.936-.351zM15 1.262l.936-.35-.936-2.5-.936 2.5.936.35zm-3.688 9.842l.936.352-.936-.352zm-.312.217v-1 1zm-9.862 0v-1h-2.413L.43 12.028l.707-.707zm7.43 7.436l.708-.707-.707.707zm.088.316l-.97-.244v.002l.97.242zm-2.445 9.795l-.97-.242-.658 2.635 2.21-1.58-.582-.813zm8.597-6.145l-.578-.816-.004.003.582.813zM24.334 29c.139 0 .274.043.386.124l-1.161 1.628c.226.161.496.248.774.248l.001-2zm.387.124l-9.14-6.533-1.162 1.627 9.139 6.533 1.163-1.627zm-10.303-6.533l-9.14 6.534 1.163 1.627 9.14-6.534-1.162-1.627zM5.28 29.123A.667.667 0 015.66 29l.02 2c.272-.003.537-.089.759-.247l-1.159-1.63zM5.66 29a.667.667 0 01.381.116l-1.125 1.653c.225.153.492.234.764.23L5.66 29zm.381.116a.667.667 0 01.248.312l-1.868.715c.097.254.27.473.495.626l1.125-1.653zm.248.312a.666.666 0 01.025.398l-1.942-.479c-.065.265-.048.542.05.796l1.867-.715zm.024.4l2.62-10.49-1.94-.485-2.62 10.491 1.94.485zm2.358-11.44L.805 10.517-.61 11.93l7.866 7.872 1.415-1.413zM.806 10.517a.667.667 0 01.182.34l-1.962.392c.052.258.178.495.364.681l1.416-1.413zm.182.34a.666.666 0 01-.038.385L-.9 10.48c-.1.244-.125.51-.074.769l1.962-.391zm-.038.385a.666.666 0 01-.244.299L-.41 9.88a1.334 1.334 0 00-.488.6l1.85.76zm-.244.299a.667.667 0 01-.37.113l-.008-2c-.264.002-.52.08-.739.228L.706 11.54zm-.374.113h10.436v-2H.332v2zm11.372-.649L15.624.546l-1.873-.702-3.92 10.458 1.873.702zM15.624.547A.68.68 0 0115 1a.68.68 0 01-.624-.455l1.873-.7C16.014-.785 15.42-1 15-1c-.419 0-1.012.215-1.248.843l1.872.704zm-1.248 0l3.919 10.457 1.872-.702L16.25-.156l-1.873.702zm4.855 11.106h10.436v-2H19.23v2zm10.43 0a.667.667 0 01-.368-.114L30.41 9.88a1.333 1.333 0 00-.739-.227l-.01 2zm-.368-.114a.667.667 0 01-.244-.299l1.849-.761c-.1-.244-.27-.452-.488-.599l-1.117 1.66zm-.244-.299a.666.666 0 01-.038-.384l1.962.391a1.334 1.334 0 00-.075-.768l-1.85.761zm-.038-.384a.667.667 0 01.182-.34l1.416 1.412c.186-.186.312-.423.364-.68l-1.962-.392zm.183-.34l-7.866 7.872 1.415 1.413 7.865-7.872-1.415-1.414zm-8.128 8.82l2.62 10.492 1.94-.485-2.62-10.49-1.94.484zm2.62 10.492a.664.664 0 01-.005-.3l1.956.415a1.334 1.334 0 00-.01-.6l-1.94.485zm-.005-.3a.665.665 0 01.126-.271l1.577 1.23c.125-.16.211-.346.253-.544l-1.956-.415zm.126-.271a.666.666 0 01.233-.19l.878 1.798c.182-.09.341-.218.466-.378l-1.577-1.23zm.233-.19a.668.668 0 01.293-.067v2c.203 0 .403-.046.585-.135l-.878-1.797zM24.333 31v-2 2zm-9.334-7.338a.666.666 0 01-.386-.124l1.162-1.628a1.335 1.335 0 00-.774-.248l-.002 2zm-.387-.125l8.595 6.145 1.164-1.627-8.595-6.145-1.164 1.627zm10.147 5.089l-2.445-9.795-1.94.485 2.445 9.794 1.94-.484zm-2.446-9.797a.667.667 0 01-.004.34l-1.928-.531a1.333 1.333 0 00-.008.68l1.94-.489zm-.004.34a.667.667 0 01-.17.294l-1.416-1.413a1.34 1.34 0 00-.342.588l1.928.531zm-.171.295l7.431-7.437-1.414-1.414-7.432 7.437 1.415 1.414zm6.724-9.144H19v2h9.862v-2zm-9.862 0c.136 0 .268.041.38.119l-1.14 1.644c.224.154.49.237.76.237v-2zm.38.119a.667.667 0 01.244.313l-1.872.703c.095.254.266.473.489.628l1.139-1.644zm.244.314L15.936.912l-1.872.701 3.688 9.842 1.872-.702zM14.064.912l-3.688 9.841 1.873.702 3.687-9.842-1.872-.701zm-3.688 9.841a.667.667 0 01.244-.314l1.14 1.644c.222-.154.393-.373.488-.627l-1.872-.703zm.244-.314a.667.667 0 01.38-.118v2c.27 0 .536-.083.76-.238l-1.14-1.644zm.38-.118H1.138v2H11v-2zM.43 12.028l7.431 7.436 1.415-1.414-7.43-7.436L.43 12.027zm7.431 7.435a.667.667 0 01-.17-.294l1.927-.531a1.333 1.333 0 00-.342-.588l-1.415 1.413zm-.17-.294a.667.667 0 01-.005-.34l1.94.488a1.333 1.333 0 00-.008-.68l-1.928.532zm-.005-.338L5.24 28.626l1.94.484 2.445-9.794-1.94-.485zm-.894 10.85l8.597-6.144-1.163-1.627-8.597 6.145 1.163 1.627zm8.594-6.142a.666.666 0 01-.382.123l-.008-2c-.274 0-.542.087-.766.245l1.156 1.632z" fill="#000" mask="url(#path-1-inside-1_42_318)"/></g><defs><clipPath id="clip0_42_318"><path fill="#fff" d="M0 0h30v30H0z"/></clipPath></defs></svg>