<svg width="30" height="30" fill="none" xmlns="http://www.w3.org/2000/svg"><g clip-path="url(#clip0_42_316)" fill="#898989"><path d="M24.333 30a.334.334 0 01-.193-.062L15 23.405l-9.14 6.533a.334.334 0 01-.517-.351l2.62-10.491-7.865-7.873a.334.334 0 01.234-.57h10.436L14.688.195c.098-.26.527-.26.624 0l3.92 10.458h10.435a.334.334 0 01.234.57l-7.865 7.871 2.62 10.491a.335.335 0 01-.323.415zM15 22.662a.33.33 0 01.194.062l8.595 6.144-2.446-9.795a.332.332 0 01.088-.316l7.431-7.437H19a.333.333 0 01-.312-.216L15 1.262l-3.688 9.842a.333.333 0 01-.312.217H1.138l7.43 7.436a.333.333 0 01.088.316l-2.445 9.795 8.597-6.145a.334.334 0 01.192-.061z"/><path d="M15 22.662a.33.33 0 01.194.062l8.595 6.144-2.446-9.795a.332.332 0 01.088-.316l7.431-7.437H19a.333.333 0 01-.312-.216L15 1.262l-3.688 9.842a.333.333 0 01-.312.217H1.138l7.43 7.436a.333.333 0 01.088.316l-2.445 9.795 8.597-6.145a.334.334 0 01.192-.061z"/></g><defs><clipPath id="clip0_42_316"><path fill="#fff" d="M0 0h30v30H0z"/></clipPath></defs></svg>