<svg width="32" height="36" fill="none" xmlns="http://www.w3.org/2000/svg"><g clip-path="url(#clip0_42_306)" fill="#231F20"><path d="M16 36L.25 27V9L16 0l15.75 9v18L16 36zM.804 26.679L16 35.36l15.196-8.681V9.32L16 .64.804 9.32v17.36z"/><path d="M19.558 14.657c-.773-1.476-2.708-2.523-4.97-2.523-2.943 0-5.337 1.772-5.337 3.95 0 1.547 1.206 2.941 3.09 3.586l.41 3.182 1.85-2.672c.033.029.064.06.099.088.844.68 2.039 1.079 3.291 1.104l1.729 2.494.363-2.818c1.626-.565 2.667-1.775 2.667-3.118 0-1.51-1.278-2.813-3.192-3.273zm-6.705 4.587l-.172-.054c-1.743-.542-2.868-1.762-2.868-3.106 0-1.867 2.142-3.387 4.774-3.387 2.078 0 3.846.949 4.5 2.266l.027.056c.039.082.07.165.102.248 0 .01.007.018.01.027a2.665 2.665 0 01.088.333 2.39 2.39 0 01.024.802c-.244 1.707-2.283 3.044-4.75 3.044l-.178-.006-1.289 1.86-.268-2.083zm6.89 1.323l-.172.054-.222 1.722-1.065-1.538-.175.008c-1.054 0-2.065-.292-2.823-.808.133-.013.263-.031.392-.052l.083-.01c.165-.028.328-.061.488-.1.037-.009.07-.021.109-.03.12-.032.24-.064.355-.102.055-.018.107-.039.16-.057.096-.034.191-.07.281-.105.058-.024.114-.05.17-.075.084-.038.168-.075.249-.116.058-.028.112-.06.168-.09.076-.041.152-.082.225-.127.055-.034.107-.07.16-.102a4.303 4.303 0 00.353-.255c.062-.05.123-.101.183-.153a4.395 4.395 0 00.561-.598 3.336 3.336 0 00.225-.328 2.194 2.194 0 00.185-.347l.07-.147c.03-.07.052-.145.076-.218.015-.048.033-.096.046-.145.022-.081.037-.166.051-.25.007-.04.019-.082.024-.124a2.937 2.937 0 00-.077-1.156c1.415.464 2.364 1.487 2.364 2.612 0 1.138-.96 2.174-2.444 2.636v.001z"/></g><defs><clipPath id="clip0_42_306"><path fill="#fff" d="M0 0h32v36H0z"/></clipPath></defs></svg>