<svg width="38" height="36" fill="none" xmlns="http://www.w3.org/2000/svg"><rect width="38" height="36" rx="8" fill="#000"/><path d="M8.902 10.209c1.481-1.934 3.43-3.061 5.845-3.38 2.422-.32 4.6.26 6.535 1.742 1.67 1.28 2.742 2.94 3.217 4.978.472 2.016.27 3.95-.607 5.805.073.038.143.085.208.138l6.488 4.973a1.812 1.812 0 01.722 1.243 1.81 1.81 0 01-.373 1.388 1.871 1.871 0 01-2.632.348l-6.49-4.973a1.197 1.197 0 01-.187-.165c-1.562 1.33-3.377 2.028-5.446 2.095-2.092.072-3.973-.531-5.643-1.81-1.934-1.483-3.061-3.433-3.38-5.848-.321-2.422.26-4.6 1.743-6.534zm11.116.01c-1.477-1.133-3.143-1.576-4.998-1.33-1.848.244-3.338 1.105-4.47 2.582-1.14 1.479-1.587 3.146-1.342 5.001.245 1.848 1.11 3.338 2.594 4.469 1.478 1.14 3.14 1.587 4.989 1.343 1.856-.246 3.349-1.111 4.48-2.596 1.131-1.477 1.575-3.14 1.33-4.987-.245-1.856-1.106-3.35-2.583-4.481v-.002zm-7.469 9.473c-1.081-.892-1.714-2.029-1.896-3.41-.184-1.39.13-2.657.943-3.799l1.266.97c-.544.783-.753 1.656-.626 2.619.126.955.554 1.74 1.283 2.354l-.97 1.266z" fill="#fff"/></svg>