<svg width="8" height="12" fill="none" xmlns="http://www.w3.org/2000/svg"><path d="M5.62 8.518l.557-.145c.33-.09.688.056.802.313l.988 2.36c.114.258-.072.538-.401.627l-.558.146-1.389-3.3zM3.214 6.27c.887 2.126 1.502 2.383 1.889 2.383l1.36 3.312c-.93.235-2.52-.738-3.092-1.253-1.001-.918-1.96-2.361-2.576-3.85-.7-1.7-.901-3.088-.744-4.24C.18 1.716.824.53 1.64.295l1.403 3.368c-.458.179-.644.66.172 2.606zM2.14.172l.558-.146c.33-.089.687.056.802.314l1.016 2.428c.115.257-.072.537-.4.626l-.559.146L2.141.172z" fill="#F7C91E"/></svg>