<svg width="85" height="72" fill="none" xmlns="http://www.w3.org/2000/svg"><g clip-path="url(#clip0_6_2520)"><path d="M32.285 66.16c-2.46 0-2.039-.93-2.889-3.265l-7.223-23.78L77.785 6.122l-45.5 60.038z" fill="#ECEFF1"/><path d="M32.285 66.16c1.897 0 2.736-.868 3.791-1.897l10.112-9.834-12.614-7.604-1.289 19.335z" fill="#CFD8DC"/><path d="M33.574 46.83l30.561 22.58c3.492 1.922 6.003.927 6.874-3.24L83.45 7.548c1.274-5.107-1.945-7.422-5.284-5.91l-73.05 28.17c-4.988 2-4.954 4.784-.91 6.021l18.746 5.852L66.35 14.3c2.05-1.242 3.93-.574 2.39.797L33.573 46.831z" fill="#fff"/><path d="M67.204 71.776c-1.143 0-2.398-.375-3.754-1.123L32.729 47.97a1.428 1.428 0 01-.577-1.075c-.02-.427.15-.839.469-1.126l36.388-32.746a1.421 1.421 0 111.903 2.113L35.82 46.72l29.16 21.544c.77.412 2.073.936 3 .506.944-.432 1.41-1.811 1.638-2.892l12.441-58.63c.484-1.936.25-3.494-.611-4.211-.657-.546-1.635-.586-2.693-.108L5.625 31.133c-2.244.902-2.949 1.829-2.937 2.136.008.202.491.76 1.933 1.2l18.13 5.659L42.653 27.57a1.42 1.42 0 111.516 2.403L23.71 42.88a1.434 1.434 0 01-1.183.156L3.782 37.185C.455 36.167-.114 34.369-.153 33.388c-.057-1.345.72-3.29 4.74-4.9L77.657.313c1.982-.905 4.11-.711 5.614.543 1.743 1.453 2.312 4.018 1.561 7.035l-12.43 58.576c-.523 2.497-1.61 4.143-3.233 4.888a4.636 4.636 0 01-1.965.421z" fill="#455A64"/><path d="M67.204 71.776c-1.143 0-2.398-.375-3.754-1.123L44.34 56.55a1.42 1.42 0 01-.299-1.988 1.42 1.42 0 011.988-.299l18.95 14c.772.412 2.074.936 3.001.506.944-.432 1.41-1.811 1.638-2.892l12.441-58.63c.484-1.936.25-3.494-.611-4.211-.657-.546-1.635-.586-2.693-.108L5.625 31.133c-2.244.902-2.949 1.829-2.937 2.136.008.202.491.76 1.933 1.2l18.752 5.852c.45.14.799.495.938.944l6.447 21.218c.174.475.307.947.424 1.356.09.324.205.728.281.848-.011-.015.216.054.822.056 1.271 0 1.755-.474 2.722-1.416l4.72-4.59a1.423 1.423 0 011.982 2.039l-4.64 4.508c-1.144 1.117-2.355 2.3-4.784 2.3-2.787 0-3.35-1.234-3.842-2.974-.1-.353-.213-.76-.384-1.229l-6.25-20.569-18.027-5.627C.455 36.167-.114 34.369-.153 33.388c-.057-1.345.72-3.29 4.74-4.9L77.657.313c1.982-.905 4.11-.711 5.614.543 1.743 1.453 2.312 4.018 1.561 7.035l-12.43 58.576c-.523 2.497-1.61 4.143-3.233 4.888a4.636 4.636 0 01-1.965.421z" fill="#455A64"/><path d="M49.61 25.813c0 .782-.64 1.421-1.422 1.421-.782 0-1.422-.64-1.422-1.422 0-.782.64-1.421 1.422-1.421.781 0 1.421.64 1.421 1.422z" fill="#455A64"/></g><defs><clipPath id="clip0_6_2520"><path fill="#fff" d="M0 0h85v72H0z"/></clipPath></defs></svg>