<svg width="23" height="22" fill="none" xmlns="http://www.w3.org/2000/svg"><path d="M22.971 11.423a11.073 11.073 0 00-2.789-7.192l.592-.618-.338-.296A12.183 12.183 0 0011.982 0 12.183 12.183 0 003.53 3.317l-.338.288.592.626a11.074 11.074 0 00-2.79 7.192A8.951 8.951 0 003.53 17.93v2.378h1.69A1.693 1.693 0 006.91 22a1.69 1.69 0 001.691-1.692v-6.77a1.693 1.693 0 00-1.69-1.692A1.69 1.69 0 005.22 13.54H3.53v3.105a8.213 8.213 0 01-1.691-5.22A10.16 10.16 0 014.375 4.84l.566.601.279-.296a9.505 9.505 0 016.763-2.606 9.505 9.505 0 016.762 2.606l.304.296.541-.6a10.16 10.16 0 012.536 6.582 8.213 8.213 0 01-1.69 5.22V13.54h-1.691a1.693 1.693 0 00-1.69-1.693 1.69 1.69 0 00-1.691 1.693v6.769A1.693 1.693 0 0017.054 22a1.69 1.69 0 001.691-1.692h1.69V17.93a8.946 8.946 0 002.537-6.507zm-16.06 1.27a.845.845 0 01.845.846v6.769a.846.846 0 11-1.69 0v-6.77a.847.847 0 01.845-.845zm-2.536 1.692h.845v5.077h-.845v-5.077zM18.99 4.23a10.357 10.357 0 00-7.007-2.538A10.357 10.357 0 004.974 4.23l-.6-.592A11.38 11.38 0 0111.982.847c2.793-.035 5.5.959 7.608 2.792l-.6.592zm-1.936 16.923a.845.845 0 01-.845-.846v-6.77a.847.847 0 011.443-.598.847.847 0 01.248.599v6.769a.847.847 0 01-.846.846zm2.536-1.692h-.845v-5.077h.845v5.077z" fill="#000"/><path d="M18.99 4.231a10.357 10.357 0 00-7.007-2.538A10.357 10.357 0 004.974 4.23l-.6-.592A11.38 11.38 0 0111.982.847c2.793-.035 5.5.959 7.608 2.792l-.6.592zm-1.936 16.923a.845.845 0 01-.845-.846v-6.77a.847.847 0 011.443-.598.847.847 0 01.248.599v6.769a.847.847 0 01-.846.846zM6.91 12.693a.845.845 0 01.846.846v6.769a.846.846 0 11-1.69 0v-6.77a.847.847 0 01.845-.845zm12.68 6.769h-.845v-5.077h.845v5.077zM4.375 14.385h.845v5.077h-.845v-5.077z" fill="#F7C91E"/></svg>