<svg width="28" height="19" fill="none" xmlns="http://www.w3.org/2000/svg"><path d="M26.71 7.594H2.257A1.264 1.264 0 00.992 8.859v8.438a1.266 1.266 0 001.265 1.265H26.71a1.264 1.264 0 001.265-1.265V8.859a1.266 1.266 0 00-1.265-1.265zm.421 9.703a.422.422 0 01-.421.422H2.257a.422.422 0 01-.422-.422V8.859a.422.422 0 01.422-.421H26.71a.422.422 0 01.421.421v8.438z" fill="#000"/><path d="M20.386 14.344h-.843v.844h1.686v-2.532h-.843v1.688zm.844 1.687H18.7v.844h2.53v-.844zm-1.687-3.375H4.365v.844h15.178v-.844zm-16.021 0H2.68v.844h.843v-.844z" fill="#000"/><path d="M3.522 9.281H2.68v.844h.843v-.844zM12 3h-2v1h2V3z" fill="#F7C91E"/><path d="M4.365 14.344H2.679v.844h1.686v-.844zm.843 1.687h-2.53v.844h2.53v-.844zm12.648 0H6.051v.844h11.805v-.844zm.844-1.687H5.207v.844H18.7v-.844zm2.53-3.375H2.678v.844h18.55v-.844zm5.058 0h-4.216v.844h4.216v-.844zM21.23 9.281H4.364v.844h16.864v-.844zm5.058 3.375h-4.216v.844h4.216v-.844z" fill="#000"/><path d="M24.602 15.188h-.843v.843h-.843v.844h2.53v-.844h-.844v-.843z" fill="#F7C91E"/><path d="M12.151 6.4h3.795a2.952 2.952 0 002.95-2.95A2.95 2.95 0 0015.947.5H12.15A2.952 2.952 0 009.2 3.45a2.95 2.95 0 002.951 2.95zm5.903-2.95a2.107 2.107 0 01-2.108 2.107h-1.687V1.343h1.687a2.108 2.108 0 012.108 2.107zM12.15 1.343h1.265v4.214H12.15a2.109 2.109 0 01-1.49-3.597 2.109 2.109 0 011.49-.617z" fill="#000"/></svg>