<svg width="27" height="27" fill="none" xmlns="http://www.w3.org/2000/svg"><path d="M25.102 8.438v-4.43A3.801 3.801 0 0021.305.21h-.423a3.804 3.804 0 00-2.705 1.14 3.725 3.725 0 00-1.091 2.657v18.984a2.534 2.534 0 01-2.531 2.531h-.633a2.534 2.534 0 01-2.531-2.53V4.007A3.801 3.801 0 007.594.21h-.422a3.801 3.801 0 00-3.797 3.797v.887a.69.69 0 00-.42.563L2.766 6.97c-.686.04-1.279.295-1.722.75-.56.573-.855 1.429-.832 2.406 0 .04.003 4.022.212 8.447.107 2.25.25 4.242.422 5.919.136 1.31 1.133 2.298 2.32 2.298h1.686c1.186 0 2.183-.988 2.318-2.299.175-1.688.317-3.68.424-5.918.21-4.425.21-8.407.21-8.442.024-.982-.271-1.838-.83-2.411-.445-.455-1.038-.71-1.724-.75l-.19-1.507a.694.694 0 00-.42-.568v-.887a2.534 2.534 0 012.53-2.531h.423a2.534 2.534 0 012.531 2.53v18.985a3.801 3.801 0 003.797 3.797h.633a3.801 3.801 0 003.797-3.797V4.008a2.534 2.534 0 012.53-2.531h.423a2.534 2.534 0 012.53 2.53v4.43a1.69 1.69 0 00-1.687 1.688v3.797c0 .93.758 1.687 1.688 1.687v2.575a.69.69 0 00-.42.563l-.174 1.388a.841.841 0 00-.46.748v3.375c0 .155.085.29.21.363v.48c0 .233.19.422.422.422v.844c0 .233.19.422.422.422h1.266c.232 0 .421-.19.421-.422v-.844a.422.422 0 00.422-.421v-.481a.42.42 0 00.211-.363v-3.375a.841.841 0 00-.46-.748l-.174-1.383a.695.695 0 00-.42-.568v-2.575a1.69 1.69 0 001.687-1.687v-3.797a1.69 1.69 0 00-1.687-1.688zm-20.25 17.93H3.165c-.97 0-1.785-.826-1.899-1.921a103.172 103.172 0 01-.383-5.152c.711.848 1.736 1.34 2.904 1.376a4.354 4.354 0 003.351-1.445 103.577 103.577 0 01-.388 5.221c-.113 1.095-.93 1.92-1.898 1.92zm2.53-16.243c0 .04 0 3.976-.207 8.368-.744 1.124-2.03 1.805-3.375 1.756-1.264-.038-2.338-.674-2.957-1.745a202.57 202.57 0 01-.21-8.384c-.02-.867.233-1.616.712-2.106.403-.413.959-.631 1.608-.631h2.11c.649 0 1.205.218 1.608.63.48.492.733 1.24.712 2.112zM4.825 6.961H3.192l.182-1.456c.012-.119.115-.232.212-.232h.844c.097 0 .2.113.212.238l.182 1.45zm16.48-5.906h-.421a2.956 2.956 0 00-2.953 2.953v18.984a3.379 3.379 0 01-3.375 3.375h-.633a3.379 3.379 0 01-3.375-3.375V4.008a2.956 2.956 0 00-2.953-2.953h-.422A2.956 2.956 0 004.22 4.008v.844h-.422v-.844A3.379 3.379 0 017.172.633h.422a3.379 3.379 0 013.375 3.375v18.984a2.956 2.956 0 002.953 2.953h.633a2.956 2.956 0 002.953-2.953V4.006a3.308 3.308 0 01.97-2.358A3.385 3.385 0 0120.882.633h.422a3.379 3.379 0 013.375 3.375v4.43h-.422v-4.43a2.956 2.956 0 00-2.953-2.953zm3.798 25.312h-1.266v-.844h1.266v.844zm-1.688-1.265v-.422h2.11v.422h-2.11zm2.32-.844h-2.53v-3.375a.42.42 0 01.287-.398l.008-.002a.408.408 0 01.126-.022h1.688a.418.418 0 01.116.018.422.422 0 01.305.404v3.375zm-.476-4.219H23.68l.156-1.245c.012-.119.115-.232.212-.232h.844c.097 0 .2.113.212.238l.155 1.24zm-.578-1.898h-.422v-2.532h.422v2.532zm1.687-4.22c0 .699-.567 1.267-1.265 1.267h-1.266a1.267 1.267 0 01-1.266-1.266v-3.797c0-.698.568-1.266 1.266-1.266h1.266c.698 0 1.265.568 1.265 1.266v3.797z" fill="#000"/><path d="M24.89 9.703h-.843a.634.634 0 00-.633.633v.422c0 .349.284.633.633.633h.844a.634.634 0 00.632-.633v-.422a.634.634 0 00-.632-.633zm.212 1.055a.211.211 0 01-.211.21h-.844a.211.211 0 01-.211-.21v-.422a.21.21 0 01.21-.211h.845a.21.21 0 01.21.21v.423zm-.212 1.898h-.843a.634.634 0 00-.633.633v.422c0 .349.284.633.633.633h.844a.634.634 0 00.632-.633v-.422a.634.634 0 00-.632-.633zm.212 1.055a.211.211 0 01-.211.21h-.844a.211.211 0 01-.211-.21v-.422a.21.21 0 01.21-.21h.845a.21.21 0 01.21.21v.422z" fill="#F7C91E"/><path d="M2.32 10.125c-.581 0-1.054.473-1.054 1.055v3.797a2.745 2.745 0 002.742 2.742 2.745 2.745 0 002.742-2.742V11.18c0-.582-.473-1.055-1.055-1.055H2.32zm4.008 1.055v3.797c0 1.279-1.04 2.32-2.32 2.32a2.323 2.323 0 01-2.32-2.32V11.18c0-.35.283-.633.632-.633h3.375c.35 0 .633.284.633.633z" fill="#000"/><path d="M4.008 13.078a1.9 1.9 0 00-1.899 1.899 1.9 1.9 0 001.899 1.898 1.9 1.9 0 001.898-1.898 1.9 1.9 0 00-1.898-1.899zm0 3.375a1.478 1.478 0 01-1.477-1.476A1.48 1.48 0 014.008 13.5a1.478 1.478 0 010 2.953zm-.633-3.797h1.266a.21.21 0 00.18-.32l-.632-1.054c-.077-.127-.286-.127-.362 0l-.633 1.055a.211.211 0 00.181.32zm.633-.856l.26.434h-.52l.26-.434z" fill="#F7C91E"/><path d="M1.898 8.86c0 .348.284.632.633.632h2.953a.634.634 0 000-1.265H2.531a.634.634 0 00-.633.632zm3.797 0a.21.21 0 01-.21.21H2.53a.211.211 0 010-.422h2.953c.117 0 .211.095.211.211z" fill="#000"/></svg>