<svg width="25" height="23" fill="none" xmlns="http://www.w3.org/2000/svg"><path d="M5.982 22.015c.38.206.754.227 1.17.227h14.935c.791 0 1.83.158 2.479-.39.764-.649.585-1.772.585-2.669V3.585c0-.686.116-1.498-.29-2.094-.359-.527-.934-.722-1.545-.722H7.248c-.259 0-.507-.006-.765.031-.628.09-1.123.638-1.281 1.229-.069.253-.048.533-.048.79v7.457c0 .512.791.512.791 0V2.979c0-.21-.005-.416 0-.627.01-.443.438-.791.865-.791h16.585c.543 0 .954.353.954.917v18.088c0 .533-.41.891-.922.891H7.068c-.247 0-.464.006-.69-.116-.443-.253-.844.433-.396.675z" fill="#000"/><path d="M20.89 13.71c-.016 2.32-1.434 4.46-3.602 5.326-2.204.88-4.746.28-6.36-1.445-1.603-1.714-1.956-4.34-.917-6.434 1.05-2.12 3.317-3.343 5.653-3.164 2.943.227 5.21 2.81 5.226 5.717.005.511.796.511.791 0a6.602 6.602 0 00-3.517-5.79c-2.162-1.134-4.873-.924-6.845.51-1.999 1.456-2.97 3.903-2.61 6.334.353 2.373 2.114 4.356 4.355 5.137 1.973.685 4.235.316 5.917-.907a6.584 6.584 0 002.695-5.284c.01-.512-.78-.512-.786 0z" fill="#F7C91E"/><path d="M19.234 13.71a4.124 4.124 0 01-1.345 3.021c-.854.791-2.024 1.134-3.169 1.029-2.373-.211-4.024-2.595-3.554-4.884.422-2.056 2.373-3.406 4.43-3.222 2.056.185 3.617 2.025 3.638 4.056.005.511.796.511.791 0-.02-2.516-1.94-4.583-4.43-4.847-2.457-.258-4.767 1.54-5.22 3.945-.464 2.463 1.07 4.894 3.464 5.59 2.421.701 4.958-.67 5.87-2.97a4.764 4.764 0 00.31-1.713c.006-.517-.785-.517-.785-.005z" fill="#F7C91E"/><path d="M5.555 5.968H24.75c.512 0 .512-.79 0-.79H5.555c-.506 0-.506.79 0 .79z" fill="#000"/><path d="M8.956 3.363c-.02.454-.675.454-.696 0-.026-.453.675-.448.696 0 .027.506.818.512.791 0a1.166 1.166 0 00-1.139-1.139c-.638-.032-1.112.543-1.139 1.14-.032.637.543 1.112 1.14 1.138.637.032 1.112-.543 1.138-1.139.021-.511-.77-.506-.79 0zm2.901 0c-.021.454-.675.454-.696 0-.021-.453.675-.448.696 0 .026.506.817.512.79 0a1.166 1.166 0 00-1.138-1.139c-.639-.032-1.113.543-1.14 1.14-.031.637.544 1.112 1.14 1.138.638.032 1.112-.543 1.139-1.139.026-.511-.765-.506-.791 0zm2.905 0c-.02.454-.675.454-.696 0-.026-.453.675-.448.696 0 .027.506.818.512.791 0a1.166 1.166 0 00-1.139-1.139c-.638-.032-1.112.543-1.139 1.14-.032.637.543 1.112 1.14 1.138.637.032 1.112-.543 1.138-1.139.021-.511-.77-.506-.79 0z" fill="#F7C91E"/><path d="M7.559 12.592H.245c-.2 0-.412.179-.396.395.206 2.479.417 4.952.622 7.43.08.97.696 1.688 1.677 1.814.211.027.438.006.649.006h1.207c.633 0 1.34.084 1.962-.058.622-.143 1.092-.66 1.287-1.25.058-.185.068-.38.084-.575l.617-7.367c.042-.506-.749-.506-.79 0-.206 2.479-.417 4.952-.623 7.43-.053.633-.512 1.029-1.14 1.029H3.199c-.67 0-1.43.126-1.814-.565-.18-.316-.143-.812-.174-1.16-.19-2.246-.38-4.493-.565-6.74l-.395.396h7.314c.506.006.506-.785-.005-.785z" fill="#000"/><path d="M6.52 12.592H1.279c-.18 0-.143-.232-.143-.349 0-.116-.037-.348.142-.348H6.41c.1 0 .206-.015.248.106.032.1.005.242.005.348 0 .105.006.232-.142.243-.506.031-.512.822 0 .79a.991.991 0 00.807-.463c.142-.211.126-.486.126-.728 0-.56-.31-1.087-.933-1.087H1.616c-.17 0-.348-.015-.512.022-1.113.226-1.007 2.262.185 2.262H6.52c.511-.005.511-.796 0-.796z" fill="#000"/><path d="M5.977 11.104H2.106c-.132 0-.411.053-.427-.142-.016-.258.079-.3.3-.3h3.992c.211 0 .211.427.006.442-.506.032-.512.823 0 .792.664-.043 1.044-.633.912-1.271-.095-.475-.511-.755-.98-.755H1.904c-.463 0-.827.238-.98.686-.2.58.195 1.292.828 1.334.701.048 1.418.005 2.125.005h2.104c.506 0 .506-.79-.005-.79z" fill="#000"/></svg>