<svg width="26" height="18" fill="none" xmlns="http://www.w3.org/2000/svg"><path d="M13.874 1.598h-.78V.799h.78v.799zM14.654 0h-2.342v2.397h2.343V0zm1.172 15.18v.4H11.14v-.4h-.78v.6c0 .33.262.6.585.6h5.075a.593.593 0 00.585-.6v-.6h-.78z" fill="#F7C91E"/><path d="M12.703 7.59H6.457V3.995c0-.22.175-.4.39-.4h5.465c.215 0 .39.18.39.4V7.59zm7.807 0h-6.246V3.995c0-.22.176-.4.39-.4h5.466c.214 0 .39.18.39.4V7.59z" fill="#E0E0E0"/><path d="M16.216 15.18v.6c0 .11-.088.2-.195.2h-5.075a.198.198 0 01-.195-.2v-.6" fill="#F7C91E"/><path d="M4.505 16.779H1.382v-.8h3.123v.8zm21.08 0h-3.123v-.8h3.123v.8zm-1.562-1.599h-.78V1.998c0-.66-.525-1.198-1.171-1.198H4.895c-.646 0-1.17.538-1.17 1.198v13.184h-.782V1.997C2.943.897 3.82 0 4.895 0h17.177c1.076 0 1.951.896 1.951 1.997v13.184z" fill="#262626"/><path d="M1.772 15.58v.8c0 .44.35.798.781.798h21.86a.79.79 0 00.782-.799v-.799H1.772zm22.642 2.397H2.554c-.862 0-1.562-.717-1.562-1.598v-.799c0-.44.35-.799.78-.799h23.423c.43 0 .78.359.78.8v.798c0 .881-.7 1.598-1.561 1.598zM5.286 13.183H21.68V2.796a.395.395 0 00-.39-.399H5.676c-.215 0-.39.18-.39.4v10.386zm17.176.8H4.505V2.795c0-.66.525-1.198 1.171-1.198h15.615c.646 0 1.171.538 1.171 1.198v11.186z" fill="#262626"/><path d="M12.703 9.188H6.457V8.39h6.246v.8zm-1.171 1.598H7.628v-.799h3.904v.8zm8.978-1.598h-6.246V8.39h6.246v.8zm-1.171 1.598h-3.904v-.799h3.904v.8z" fill="#262626"/></svg>