<svg width="27" height="27" fill="none" xmlns="http://www.w3.org/2000/svg"><path d="M20.25 20.7H6.75v.9h13.5v-.9zm0 2.7H6.75v.9h13.5v-.9zm.9-9.9a.9.9 0 100-1.8.9.9 0 000 1.8z" fill="#F7C91E"/><path d="M23.85 8.1h-1.8V1.8c0-.99-.81-1.8-1.8-1.8H6.75c-.99 0-1.8.81-1.8 1.8v6.3h-1.8c-1.53 0-2.7 1.17-2.7 2.7v8.1c0 1.53 1.17 2.7 2.7 2.7h1.8v3.6c0 .99.81 1.8 1.8 1.8h13.5c.99 0 1.8-.81 1.8-1.8v-3.6h1.8c1.53 0 2.7-1.17 2.7-2.7v-8.1c0-1.53-1.17-2.7-2.7-2.7zm-18-6.3c0-.45.36-.9.9-.9h13.5c.45 0 .9.36.9.9v6.3H5.85V1.8zm15.3 23.4c0 .45-.36.9-.9.9H6.75c-.45 0-.9-.36-.9-.9v-6.3h15.3v6.3zm4.5-6.3c0 .99-.81 1.8-1.8 1.8h-1.8V18H4.95v2.7h-1.8c-.99 0-1.8-.81-1.8-1.8v-8.1c0-.99.81-1.8 1.8-1.8h20.7c.99 0 1.8.81 1.8 1.8v8.1z" fill="#000"/></svg>