<svg width="28" height="27" fill="none" xmlns="http://www.w3.org/2000/svg"><path fill-rule="evenodd" clip-rule="evenodd" d="M9.424 0a.843.843 0 01.843.844v2.531h1.687V.844a.844.844 0 011.686 0v2.531h1.687V.844a.844.844 0 111.686 0v2.531H18.7V.844a.844.844 0 111.687 0v2.531a4.214 4.214 0 014.216 4.219h2.53a.843.843 0 010 1.687h-2.53v1.688h2.53a.843.843 0 110 1.687h-2.53v1.688h2.53a.843.843 0 110 1.687h-2.53v1.688h2.53a.843.843 0 110 1.687h-2.53a4.22 4.22 0 01-4.216 4.219v2.531a.844.844 0 01-1.686 0v-2.531h-1.687v2.531a.844.844 0 01-1.686 0v-2.531H13.64v2.531a.844.844 0 01-1.686 0v-2.531h-1.687v2.531a.844.844 0 11-1.686 0v-2.531a4.215 4.215 0 01-4.216-4.219h-2.53a.843.843 0 110-1.687h2.53V16.03h-2.53a.843.843 0 110-1.687h2.53v-1.688h-2.53a.843.843 0 110-1.687h2.53V9.28h-2.53a.843.843 0 010-1.687h2.53a4.22 4.22 0 014.216-4.219V.844A.844.844 0 019.424 0zm-.843 5.063a2.529 2.529 0 00-2.53 2.53v11.813a2.532 2.532 0 002.53 2.532h11.805a2.529 2.529 0 002.53-2.532V7.594a2.532 2.532 0 00-2.53-2.532H8.58zm.843 5.906a2.532 2.532 0 012.53-2.531h5.06a2.529 2.529 0 012.529 2.53v5.063a2.532 2.532 0 01-2.53 2.532h-5.06a2.529 2.529 0 01-2.529-2.532V10.97zm2.53-.844a.843.843 0 00-.843.844v5.062a.844.844 0 00.843.844h5.06a.843.843 0 00.842-.844V10.97a.844.844 0 00-.843-.844h-5.06z" fill="#000"/><path d="M11.954 10.125a.843.843 0 00-.843.844v5.062a.844.844 0 00.843.844h5.06a.843.843 0 00.842-.844V10.97a.844.844 0 00-.843-.844h-5.06z" fill="#F7C91E"/></svg>