<svg width="28" height="24" fill="none" xmlns="http://www.w3.org/2000/svg"><path d="M14.483 16.875a2.784 2.784 0 002.811-2.813 2.784 2.784 0 00-2.81-2.812v5.625z" fill="#F7C91E"/><path d="M24.664 4.5V5h.5a2.284 2.284 0 012.31 2.313v13.5a2.283 2.283 0 01-2.31 2.312H3.803a2.284 2.284 0 01-2.31-2.313v-13.5A2.282 2.282 0 013.802 5h5.033l.138-.28 1.57-3.197C10.855.95 11.585.5 12.233.5h4.498c.648 0 1.38.45 1.692 1.023l1.57 3.197.137.28h2.161V3.375a.62.62 0 01.123-.372V5h2.125V3.003a.62.62 0 01.124.372V4.5zm-1.748-1.625h-.373a.619.619 0 01.373-.125h1.124a.62.62 0 01.372.125h-1.496zM25.164 23a2.157 2.157 0 002.186-2.188v-13.5a2.157 2.157 0 00-2.186-2.187h-5.087l-1.774-3.548c-.143-.288-.414-.518-.667-.67-.255-.153-.584-.282-.904-.282h-4.497c-.32 0-.649.13-.904.282-.253.152-.524.382-.668.67L8.89 5.125H3.803a2.157 2.157 0 00-2.187 2.188v13.5c0 1.232.955 2.187 2.187 2.187h21.361z" fill="#000" stroke="#000"/><path d="M14.483 8.438c-3.091 0-5.62 2.53-5.62 5.624s2.529 5.626 5.62 5.626c3.092 0 5.622-2.532 5.622-5.625 0-3.094-2.53-5.626-5.622-5.626zm0 10.124a4.512 4.512 0 01-4.497-4.5c0-2.474 2.024-4.5 4.497-4.5a4.512 4.512 0 014.498 4.5c0 2.476-2.024 4.5-4.498 4.5z" fill="#000"/><path d="M7.176 2.25H3.803v1.125h3.373V2.25zm16.583 5.625h-.563a.865.865 0 00-.843.844v.562c0 .45.394.844.843.844h.563c.45 0 .843-.394.843-.844V8.72a.865.865 0 00-.843-.844z" fill="#303033"/></svg>