<svg width="22" height="23" fill="none" xmlns="http://www.w3.org/2000/svg"><g clip-path="url(#clip0_57_4452)" fill-rule="evenodd" clip-rule="evenodd"><path d="M9.521-.096a1.48 1.48 0 00-1.48 1.47v2.204h.74V1.374c0-.414.324-.735.74-.735h3.699c.416 0 .74.321.74.735V21.21c0 .808.666 1.47 1.48 1.47h2.219a1.48 1.48 0 001.48-1.47V9.456h-.74V21.21a.728.728 0 01-.74.735h-2.22a.728.728 0 01-.74-.735V1.374a1.48 1.48 0 00-1.479-1.47H9.521zm7.503 1.47c-.044 0-.105.044-.105.153V3.58h3.699V1.527c0-.11-.062-.153-.106-.153h-.634v1.47h-.74v-1.47h-.74v1.469h-.74v-1.47h-.634zM7.302 4.312v.735h2.22v-.735h-2.22zm8.877.022v2.919h5.177V4.334h-5.178.001zM5.822 5.782v1.47h5.179v-1.47H5.822zM1.06 7.986a.406.406 0 00-.416.413v1.791H12.48V8.4a.406.406 0 00-.416-.414H1.06zm16.599.002v.734h2.219v-.734h-2.219zM9.15 8.72c.205 0 .37.164.37.367a.369.369 0 01-.37.368.369.369 0 01-.37-.368c0-.203.166-.367.37-.367zm1.48 0c.204 0 .37.164.37.367a.369.369 0 01-.37.368.369.369 0 01-.37-.368c0-.203.166-.367.37-.367zM.644 10.925v11.342c0 .236.18.414.416.414h11.004a.406.406 0 00.416-.414V10.925H.644zm4.439.735h2.959c.204 0 .37.164.37.367v1.102h.74a.37.37 0 01.37.367v8.082a.369.369 0 01-.37.368h-5.18a.369.369 0 01-.37-.368v-8.082a.37.37 0 01.37-.367h.74v-1.102c0-.203.165-.367.37-.367zm.37.735v.734h2.219v-.734h-2.22zm-1.11 1.469v7.347H8.78v-7.347H4.343zm1.58.735h1.591c.237 0 .413.218.362.447l-.339 1.51h.268c.286 0 .464.309.319.554L6.24 20.296c-.205.34-.733.161-.685-.233l.233-1.79h-.344a.368.368 0 01-.366-.427l.478-2.937a.37.37 0 01.366-.31zm.313.734l-.357 2.205h.33c.222 0 .395.194.366.414l-.055.42.639-1.081h-.084a.368.368 0 01-.361-.448l.34-1.51h-.818z" fill="#000"/><path d="M5.083 11.66h2.959c.204 0 .37.164.37.367v1.102h.74a.37.37 0 01.37.367v8.082a.369.369 0 01-.37.368h-5.18a.369.369 0 01-.37-.368v-8.082a.37.37 0 01.37-.367h.74v-1.102c0-.203.165-.367.37-.367zm.37 1.47v-.736h2.219v.735h-2.22zm-1.11 8.081v-7.347H8.78v7.347H4.343z" fill="#F7C91E"/></g><defs><clipPath id="clip0_57_4452"><path fill="#fff" d="M0 0h22v23H0z"/></clipPath></defs></svg>