<svg width="28" height="28" fill="none" xmlns="http://www.w3.org/2000/svg"><path d="M16.17 21.116a.843.843 0 01-.597-.248l-8.431-8.437a.843.843 0 111.192-1.193l8.432 8.437a.844.844 0 01-.596 1.44z" fill="#000"/><path d="M6.911 21.96a.845.845 0 01-.847-.84.844.844 0 01.839-.848h.008a.843.843 0 010 1.687z" fill="#F7C91E"/><path d="M6.894 27.022a.843.843 0 01-.596-.247L1.24 21.712a.844.844 0 010-1.193l5.06-5.062a.843.843 0 011.192 0l5.059 5.062a.844.844 0 01-1.193 1.193l-4.463-4.466-3.866 3.87 3.866 3.87 1.934-1.936a.843.843 0 011.192 1.193l-2.53 2.532a.843.843 0 01-.596.247z" fill="#000"/><path d="M13.64 22.947a2.522 2.522 0 01-1.788-.74l-6.048-6.052a2.53 2.53 0 010-3.58l1.338-1.337a.843.843 0 011.192 1.193l-1.338 1.338a.844.844 0 000 1.193l6.048 6.052a.843.843 0 001.192 0l10.553-10.56a5.125 5.125 0 00-3.62-8.745 5.12 5.12 0 00-3.62 1.5L10.863 9.9a.843.843 0 01-1.192-1.192l6.686-6.69a6.805 6.805 0 0111.112 7.42 6.812 6.812 0 01-1.488 2.21l-10.553 10.56a2.524 2.524 0 01-1.788.74z" fill="#000"/><path d="M15.326 13.522a.843.843 0 01-.596-1.44l2.53-2.532a.843.843 0 011.192 1.193l-2.53 2.532a.843.843 0 01-.596.247z" fill="#F7C91E"/></svg>