<svg width="28" height="19" fill="none" xmlns="http://www.w3.org/2000/svg"><path d="M6.988 16.375h7.495v1.75h-4.164V19h9.16v-.875h-4.163v-1.75h6.662V5H6.988v11.375zm.832-10.5h13.325V15.5H7.82V5.875zM.992 19h4.996V0H.992v19zM1.824.864h3.332v17.272H1.824V.864zM22.977 0v19h4.997V0h-4.997zm4.164 18.136h-3.33V.864h3.33v17.272z" fill="#000"/><path d="M3.49 3a.5.5 0 100-1 .5.5 0 000 1zm0 3a.5.5 0 100-1 .5.5 0 000 1zm0 3a.5.5 0 100-1 .5.5 0 000 1zm21.986-6a.5.5 0 100-1 .5.5 0 000 1zm0 3a.5.5 0 100-1 .5.5 0 000 1zm0 3a.5.5 0 100-1 .5.5 0 000 1z" fill="#F7C91E"/></svg>