<svg version="1.0" xmlns="http://www.w3.org/2000/svg" width="1386.667" height="1386.667" viewBox="0 0 1040 1040"><path d="M491.8.5c-.2.1-4.8.6-10.3.9-5.5.3-11.1.8-12.5 1-1.4.3-5.3.7-8.7 1-3.4.4-6.8.8-7.5 1-.7.3-3.5.7-6.3 1-2.7.3-6.2.8-7.8 1.1-1.5.3-5.5 1-9 1.6-3.4.6-10 2-14.7 3.1-4.7 1.1-9.2 2-10 2-.8.1-1.9.4-2.5.8-.5.4-2.8 1.1-4.9 1.5-5.9 1-36.4 10.9-45.6 14.8-1.4.6-2.7 1.1-3 1.2-1.2.4-6.1 2.5-12.5 5.4-3.9 1.8-7.1 3.2-7.3 3.1-.1 0-4.3 2-9.2 4.5-4.9 2.5-9.2 4.4-9.4 4.3-.2-.2-1.2.4-2.2 1.2-2 1.5-2.7 2-11 6.5-2.7 1.4-6.7 3.7-8.9 5.1-2.2 1.3-5.6 3.3-7.5 4.4-4.9 2.8-7.4 4.4-8 5.1-.3.3-2.3 1.6-4.5 2.9-2.2 1.3-4.4 2.8-5 3.2-.5.5-6.4 4.8-13 9.6-20 14.7-40.6 33.3-57.5 52.1-4.1 4.6-8 8.9-8.5 9.5-1 1.1-8.3 10.2-9.7 12.1-.5.5-2.3 2.9-4.2 5.2-1.9 2.3-6.5 8.9-10.2 14.5-3.8 5.7-7.1 10.5-7.4 10.8-.6.6-1.8 2.6-7.7 12.5-2.7 4.4-5.4 8.9-6 10-.7 1.1-3.2 5.8-5.5 10.5s-4.5 8.7-4.9 9c-.3.3-.9 1.7-1.3 3.2-.3 1.6-1.1 2.8-1.6 2.8-.6 0-1 .6-1 1.4 0 .8-1.4 4.5-3.1 8.3-4 8.9-12.6 31.6-13.5 35.6-.3 1.8-1.1 3.8-1.7 4.5-.5.7-.7 1.5-.4 1.9.4.3.2 1.4-.4 2.5-.9 1.6-4.6 15-5.2 18.8-.1.8-.6 2.1-1 2.7-.5.7-.6 1.3-.3 1.3.2 0 0 1.5-.5 3.2-1 3.5-2.1 9.4-2.2 11.5 0 .7-.4 1.3-.9 1.3s-.7.4-.4.9c.3.5.1 3.3-.4 6.2-.6 3-1.3 6.9-1.5 8.6-.3 1.8-.8 5-1.1 7-.3 2.1-.8 5.6-1 7.8-.2 2.2-.6 5.8-.9 8-2.7 22.2-2.7 76.3 0 100 .2 2.2.6 5.8.9 8 .5 5.1 3.5 24.3 4.1 27.2 1 4.8 1.5 7 2.6 12.3 1.6 7.9 5.3 22.2 8.3 32 3.5 11.3 3 9.7 5.9 17.5.6 1.6 1.2 3.4 1.3 4 .1.5.8 2.3 1.5 4 .7 1.6 1.3 3.2 1.4 3.5.1.3.7 1.8 1.3 3.3.7 1.6 1.2 3 1.2 3.2 0 1.2 15.5 33.1 19.9 40.8 3.4 6 14.4 24.2 15 24.7.4.3 2.8 3.9 5.6 8 2.7 4.1 5.3 7.7 5.7 7.8.4.2.8 1 .8 1.8s.5 1.4 1.2 1.4c.6 0 .9.2.6.5-.3.3.5 1.8 1.8 3.3 1.3 1.5 5.7 6.8 9.7 11.9 19.9 24.9 44.4 48.8 70.1 68.2 11.1 8.4 33.1 23.1 34.5 23.1.6 0 1.1.4 1.1.9s.8 1.1 1.8 1.5c2.1.7 7.6 3.9 9.7 5.6.8.7 1.5.9 1.5.5s.6-.3 1.3.3c3 2.5 15.9 9.2 17.7 9.2.5 0 1 .4 1 1 0 .5.4 1 .9 1s4.7 1.7 9.3 3.9c4.5 2.1 10.8 4.9 13.8 6.1 3 1.2 6.3 2.6 7.2 3.1 1 .5 2.5.9 3.3.9.8 0 1.5.5 1.5 1.2 0 .6.3.9.6.5.4-.3 2.3.1 4.3.9 2 .9 4.1 1.7 4.6 1.8.6.1 6.9 2.1 14 4.4 13.7 4.3 23 6.9 28 7.9 3.4.6 4.1.7 7.5 1.6 2.3.6 3.8.9 10.5 2.2 7.1 1.3 26.9 4.5 31.5 5.1 45.7 5.7 104.8 4.7 144.5-2.6 2.8-.5 6.4-1.1 8-1.4 1.7-.3 4.2-.7 5.8-1 1.5-.4 3.7-.8 5-1 1.2-.2 4.2-.9 6.7-1.6 2.5-.6 5.9-1.3 7.5-1.6 1.7-.3 9.8-2.6 18-5 8.3-2.5 15.5-4.6 16-4.7 2.8-.8 12.1-4 13-4.6.6-.3 1.5-.6 2-.7 1-.2 16-6.2 22.5-9.1 22.1-9.7 67.5-35 68.8-38.5.2-.4.8-.8 1.3-.8 1.6 0 25.4-18.2 35.4-27 12.1-10.7 39.5-39.2 47-48.9 1-1.4 2.2-2.8 2.5-3.1.3-.3 2.5-3.2 4.9-6.5 2.5-3.3 4.8-6.2 5.3-6.3.4-.2.8-1 .8-1.7s.3-1.5.8-1.7c1.6-.7 23.2-34 23.2-35.8 0-.5.3-1 .8-1.2 1.6-.7 21.5-40 21.5-42.6 0-.6.4-1.2.9-1.2.4 0 .8-.8.8-1.8s.4-2.2.8-2.8c.4-.5 1.4-2.7 2.1-4.9.7-2.2 1.9-5.4 2.6-7 1.6-3.9 4.5-11.9 4.5-12.5-.1-.3.9-3.2 2-6.5 1.8-5.1 6.5-21.6 7.5-26.5.2-.8.4-1.5.5-1.5.1 0 .3-.7.5-1.5.6-3.2 1.5-7.7 2.4-12.5.6-2.8 1.2-5.9 1.4-7 .5-2 1.2-6.4 2.3-13.9.3-2.1.7-4.8 1-5.9.2-1.2.6-5.1 1-8.7.3-3.6.8-7.4 1-8.5 1-4.8 1.8-28.8 1.7-49.5-.1-23.7-.7-36.2-2.8-52-.3-1.9-.7-5.3-1-7.5-.9-7.2-2.1-14.7-4.1-25-1.8-9.5-7.9-34.1-10.1-40.5-.8-2.5-1.6-5.2-1.8-6-.4-2-4.4-13-5.6-15.5-.6-1.2-1.1-2.7-1.3-3.5-.2-.8-.8-2.6-1.3-4-.6-1.4-2-4.8-3.1-7.5-1.1-2.8-3.3-7.7-4.8-11s-2.8-6.2-2.9-6.5c-.3-1.8-14.7-28.5-18.5-34.5-1.1-1.7-2.3-3.7-2.7-4.5-.9-2.1-16.1-24.9-18.7-28.1-1.2-1.4-2.8-3.6-3.6-4.9-.8-1.2-2.2-3-3-4-.8-.9-2.6-3.2-4-5-1.4-1.9-3.4-4.4-4.5-5.6-1.1-1.3-3.8-4.4-6-7-11-13.1-29-31-41.8-41.9-2.7-2.2-5.8-4.9-7.1-6-1.2-1.1-3.7-3.1-5.6-4.5-1.8-1.4-4.2-3.3-5.3-4.3-1.1-.9-2.3-1.7-2.6-1.7-.3 0-1.7-1-3.1-2.3-4.5-4.1-29.5-20.5-41.6-27.3-8.7-4.9-26-13.4-27.1-13.4-.7 0-1.3-.4-1.3-.9s-1-1.1-2.3-1.5c-1.3-.3-4.5-1.5-7.3-2.8-2.7-1.2-5.1-2.3-5.4-2.3-.3-.1-2.2-.9-4.4-1.8-3.9-1.7-25.3-9.7-27.1-10.2-.5-.1-1.7-.4-2.5-.7-4.3-1.6-15.8-5.1-17.5-5.4-1.1-.2-4.1-1-6.8-1.8-2.6-.8-4.9-1.5-5.2-1.6-.3 0-.6 0-.7-.1-.6-.1-4.4-1-6.3-1.4-1.1-.2-2.9-.6-4-.8-3.1-.8-16.2-3.6-19.2-4.1-4.2-.8-9.4-1.5-20.3-3.1-7.3-1.1-11.1-1.5-17.5-2.1-3.8-.3-8.8-.8-11-1-4.6-.6-64.2-1.4-64.7-.9zm51.7 55.9c5.5.3 12.3.8 15 1.1 14 1.5 19 2.1 22.9 3 1.2.3 3.7.7 5.6.9 1.9.2 8 1.4 13.5 2.6 5.5 1.2 11.1 2.4 12.5 2.7 3.4.7 4.2.9 6 1.5.8.3 5.3 1.6 10 2.9 4.7 1.2 11.3 3.3 14.8 4.6 3.4 1.2 6.2 2 6.2 1.7 0-.4.7-.1 1.5.6s1.5.9 1.5.5.6-.3 1.3.2c.6.6 3.7 1.9 6.7 2.9s5.7 2.1 6 2.4c.3.3 4.3 2.1 9 3.9 4.7 1.9 9.3 4.1 10.4 5 1 .9 2.1 1.5 2.5 1.4 1.1-.4 15.3 7 26.1 13.5 30.6 18.7 58.8 42 80.6 66.7 2.7 3.1 6.2 7 7.8 8.8 1.5 1.8 4 4.8 5.4 6.7 1.5 1.9 2.9 3.7 3.2 4 .3.3 2.7 3.4 5.3 7 2.6 3.6 5.1 7 5.7 7.7.5.6 3.1 4.5 5.7 8.5 2.5 4 5 7.4 5.5 7.6.4.2.8.8.8 1.3s1.9 3.9 4.1 7.6c6 9.8 16.9 32.1 22.2 45.4 6 15.2 7.8 20.1 8.2 21.9.2.8 1.3 4.4 2.5 8 2.3 7.1 7 25.3 7.4 28.5.2 1.1.6 2.9.9 4 .7 2.2 1.3 5.4 2.3 12.4.4 2.5.8 5.5 1 6.6.9 4.6 1.8 12 2.8 22.5.7 6.3 1.8 29.6 1.8 35 0 9.4-1.2 36.6-1.7 39.2-.3 1.5-.7 5.6-1 9-.2 3.5-.7 7.4-1 8.8-.3 1.4-.8 4.5-1.1 7-.3 2.4-.7 4.7-.9 5-.2.3-.6 3-1 6s-.9 5.8-1.1 6.1c-.2.3-.6 2.1-.9 4-1.2 7.1-7 27.9-11.2 39.9-2.4 6.9-4.5 12.9-4.7 13.5-.1.5-.7 1.9-1.1 3-9 22.6-17.2 38.5-31.8 61.9-1.3 2.2-14.1 20.5-15.4 22.1-16.5 20.5-40.4 46.1-50.1 53.5-1.8 1.4-4.5 3.6-6 4.9-1.5 1.4-7 5.6-12.2 9.5-5.2 3.9-10.1 7.6-10.8 8.3-.7.7-1.9 1.3-2.7 1.3-.7 0-1.5.4-1.7.9-.6 1.6-28.2 18-30.2 18-.5-.1-1.2.4-1.5.9-.6 1-23.5 12.4-25.6 12.8-.5.1-3.5 1.3-6.5 2.7-11 5-35.3 13-50.5 16.7-9.2 2.2-10.4 2.5-16.5 3.7-4.7.9-5 1-5.2 1.3-.2.1-1.6.3-3.3.4-1.6.2-5.7.8-9 1.4-3.3.6-8.2 1.3-11 1.7-2.7.3-6.8.8-9 1-13.5 1.6-68.6 2.9-70.9 1.7-.5-.3-3.3-.6-6.2-.8-6.3-.2-17.9-1.3-21.4-1.9-6-1-11.7-1.8-14.2-1.9-1.6-.1-2.8-.3-2.8-.6s-1.2-.6-2.7-.7c-2.8-.1-14.2-2.5-28.8-6-1.6-.4-3.3-.8-3.7-.9-.5-.1-.9-.2-1-.4-.2-.1-1.1-.3-2.1-.5-2.6-.5-19.1-5.7-20.2-6.3-.5-.4-1.6-.7-2.3-.8-.8-.2-2.1-.6-3-1-.9-.4-1.9-.8-2.2-.8-3.2-.7-23.8-9.7-36-15.8-18.1-9-25.8-13.3-35.5-19.7-3.8-2.5-7.8-5-8.7-5.6-5.9-3.5-24.3-17.5-33.3-25.3-6.7-5.9-21.8-20.7-28.2-27.9-10.1-11.2-25.3-30.6-25.3-32.2 0-.5-.4-1.1-.8-1.3-1-.4-7.2-9.6-7.2-10.8 0-.4-.4-1-.9-1.2-1.1-.4-17.1-28.1-17.1-29.5 0-.6-.4-1.3-.8-1.5-2.4-1-21.4-46.4-23.7-56.8-.2-.8-.8-3-1.4-4.8-.5-1.8-1-3.3-1-3.5 0-.1-.2-.9-.5-1.7-.5-1.5-2.5-10.1-4.7-19.5-.6-2.8-1.3-6.4-1.5-8-.3-1.7-.7-4.1-1-5.3-.3-1.3-.7-4.3-1-6.5-.3-2.3-.8-5.3-1-6.7-3.4-17.6-4.8-59.9-3-86.5 1-14.3 1.4-19 1.6-19 .3 0 .8-3.6 1.5-10 .8-7.9 1-9.4 1.8-13 .6-2.9 1.1-5.3 2.2-11.3.3-1.5.8-3.8 1.2-5.2.3-1.4.7-3 .9-3.5.1-.6.7-3 1.3-5.5.7-2.5 1.4-5.5 1.6-6.7 1.3-5.8 9.9-30.5 14.4-41.2 8.1-19.2 26.2-52.5 34.7-63.7 1.3-1.7 2.4-3.6 2.4-4.2 0-.7.4-1.2.8-1.2.5 0 2.3-2.3 4.1-5 1.8-2.8 3.8-5.6 4.4-6.3.7-.6 3.7-4.3 6.7-8.2 9.7-12.2 29.4-32.7 40.9-42.5 2.9-2.5 5.8-5 6.4-5.5.7-.6 3.5-2.8 6.2-5 2.8-2.1 5.2-4.2 5.5-4.5.6-.6 4.5-3.4 13.1-9.2 3.5-2.3 6.6-4.6 6.7-5.1.2-.4.8-.7 1.3-.7.4 0 4-2 7.8-4.5s7.4-4.5 8-4.5c.6 0 1.1-.3 1.1-.8 0-.4 2-1.6 4.5-2.7s4.5-2.3 4.5-2.7c0-.5.4-.8.9-.8s6.2-2.5 12.6-5.6C360.6 87.7 384.1 78 386 78c.6 0 1.8-.4 2.8-1 2.4-1.3 20.1-6.7 28.2-8.6.8-.2 5.2-1.2 9.7-2.3 8.2-2 28.3-5.8 35.8-6.6 2.2-.3 5.6-.7 7.5-1 5.2-.8 13.2-1.5 24.9-2 5.7-.2 10.5-.6 10.7-.7.3-.4 25.7 0 37.9.6zM159.8 895.5c-.2.3-3.1.7-6.4.9-20.2 1.5-38.7 11.4-51.1 27.3-3.4 4.3-10 16.7-10.6 20-.2 1-.7 2.5-1 3.3-2.3 5.7-3.1 27.3-1.3 36 .7 3.6 1.4 6.5 1.6 6.7.2.2.3.6.4 1 1 5.9 9.4 20.6 15.3 26.8 5.5 5.9 12.9 11.3 21.1 15.4 4.5 2.3 8.2 3.9 8.2 3.6 0-.2 1.2 0 2.8.6 4.3 1.8 9.8 2.4 21.7 2.3 11.1 0 14.3-.4 23-2.9.6-.1 1.3-.3 1.8-.4.4 0 2.2-.8 4-1.8 1.7-.9 3.7-1.8 4.3-1.9 2.6-.4 11.9-7.2 17.8-13 11.3-11.1 19.1-28.2 20.1-44.7.2-3.7.7-7.2 1-7.7.3-.6.3-1-.2-1-.4 0-.9-1.9-.9-4.3-.3-8.7-2-15.8-6-24.5-3.3-7.2-8.7-15.4-12.9-19.6-4.2-4.2-12.3-10.6-13.4-10.6-.6 0-1.1-.4-1.1-.9s-.8-1.1-1.7-1.4c-1-.3-4.6-1.7-7.9-3.1-3.4-1.4-7.2-2.8-8.5-3-1.3-.3-2.4-.5-2.4-.6 0-.4-4.5-1-9.7-1.4-3.1-.2-6.1-.6-6.6-1-.5-.3-1.1-.3-1.4-.1zm11.4 11c2.9.4 5.9 1.2 6.6 1.7.6.6 1.2.8 1.2.4 0-1 11.1 4.3 16.6 7.9 5.5 3.7 14.2 12.7 16.4 17.2.8 1.5 1.9 3.5 2.5 4.3 1.4 1.8 4.3 9.6 4.8 12.5.1 1.1.6 2.6 1 3.2 1.2 1.9 1.5 18.6.5 24.9-1 6.7-4.7 17.6-6.2 18.6-.6.4-.7.8-.3.8.8 0-5.7 9.7-9 13.5-2.8 3.3-12.3 10-18 12.9-10.2 5.1-26.5 7.2-38.8 5.2-15.3-2.6-30.8-12.4-39.3-24.8-2.7-3.9-7.3-12.9-7.8-15.3-.1-.6-.9-3.8-1.7-7.3-1-4.1-1.4-9.8-1.2-16 .3-9.1.5-11.2 2-16.5 1.6-5.6 7.3-16.9 10.4-20.5 1.2-1.5 3.3-3.8 4.5-5.2 5-5.9 18.1-14 25.1-15.5 13.7-3.1 19.5-3.5 30.7-2zM284 896c0 .4-1 .6-2.2.2-1.8-.4-2-.2-1.6 1.6.4 1.2.3 2.2-.1 2.2-.8 0-.5 6.6.4 8 .3.6.3 1-.2 1-.9 0-1 5.7-.1 6.5.3.3.2 2.2-.1 4.3-.4 2-.4 5.6 0 7.9.3 2.4.3 4.3-.1 4.3-.5 0-.5 4.5.1 7.6.1.5 0 1.1-.1 1.4-.5 1.4-.5 6.2.1 6.5.3.3.3 2.1 0 4.2-.4 2.1-.4 5.7 0 8.1.3 2.3.3 4.2-.1 4.2-.5 0-.5 4.5.1 7.6.1.5 0 1.1-.1 1.4-.5 1.4-.5 6.2.1 6.5.3.3.3 2.1 0 4.2-.4 2.1-.4 5.7 0 8.1.3 2.3.3 4.2-.1 4.2-.7 0-.4 6.6.5 8 .3.5.2 1.1-.3 1.4-.6.4-.8 5-.2 6.6.1.3.1 1.8 0 3.4-.5 7.9-.4 14.6.2 14.6.4 0 .3 1.1-.2 2.5-.5 1.3-.5 2.7-.1 3 .5.3.7 1.4.4 2.6-.5 1.9-.2 2 5.3 1.7l5.9-.3-.1-61.8c0-33.9.3-61.7.7-61.7.4 0 1.8 1.5 3.2 3.2 1.3 1.8 3.5 4.4 4.7 5.8 1.2 1.4 4.1 4.7 6.4 7.4 2.2 2.6 4.9 5.8 5.9 7 1 1.1 3.6 4.1 5.7 6.6s4.8 5.6 6 7c1.2 1.4 3.6 4.2 5.3 6.4 1.8 2.1 4.7 5.3 6.5 7.1 1.7 1.8 3.2 3.6 3.2 3.9 0 .4 1 1.7 2.3 3 2.3 2.4 3.7 4.1 12.7 14.6 3 3.6 6.3 7.2 7.2 8.1 1 .9 1.8 2.1 1.8 2.8 0 .6.4 1.1.8 1.1.5 0 3 2.7 5.8 6.1 2.7 3.4 5.6 6.8 6.4 7.7.9 1 4.3 4.8 7.5 8.7 3.3 3.8 6.5 7.5 7.1 8.1.5.6 2.5 3 4.4 5.3 3.1 3.7 3.8 4.1 8.1 4.1 5.2 0 6-.9 4.8-5.2-.4-1.5-.4-3 .1-3.3.6-.3.5-1.6 0-2.9-.5-1.3-.7-2.6-.4-2.9.6-.6 1-10.7.4-10.7-.3 0-.4-2.6-.2-5.7.5-10.4.4-15.1-.3-16.2-.3-.6-.1-1.1.5-1.1s.8-.5.5-1c-.7-1.1-.8-6-.3-17.3.2-3.7 0-6.7-.3-6.7s-.3-2.2.1-4.8c.3-2.7.3-6.1-.1-7.5-.4-1.5-.3-2.9.1-3.2.5-.3.6-1.6.1-2.8-.4-1.2-.5-3.3-.1-4.7.4-1.4.3-3.7-.1-5.2s-.4-3 .1-3.3c.6-.3.5-1.6 0-2.9-.5-1.3-.7-2.6-.4-2.9.6-.6 1-10.7.4-10.7-.3 0-.4-2.6-.2-5.7.3-7 .4-12.2.3-14.6-.1-1.9-3.9-3.9-5.6-2.9-.5.4-2 .5-3.2.3-1.4-.1-2.3.3-2.4 1.1-.1.7-.2 28.3-.3 61.3-.1 39.1-.4 60.1-1.1 60.2-.5.1-4.1-3.5-7.9-8-6.5-7.8-13.9-16.5-17.9-21.1-1.1-1.1-3.3-3.8-5-6-1.8-2.1-3.9-4.6-4.8-5.5-.8-.9-9.4-10.8-18.9-22.1-9.6-11.3-17.9-21-18.5-21.6-.5-.6-2.8-3.2-5-5.9-2.2-2.6-4.5-5.3-5-5.9-.6-.6-3.5-4-6.5-7.6-3-3.5-6.9-8-8.7-10-1.7-1.9-3.9-4.5-5-5.8-1.8-2.2-8.3-4.8-8.3-3.2zm174.9 0c-.7.5-1.7.6-2.1.4-.8-.5-1.2 1.1-.8 3.1.1.5.2 2.1.2 3.5l.1 2.5h33.1c30.7 0 36.3.2 47.1 2 6.3 1.1 20.7 6.5 22.5 8.4.3.4 1.7 1.2 3.2 2 3.9 2 12.8 10.7 16.4 16.1 12.1 17.9 13.2 44.9 2.7 63.8-9.6 17.2-28.5 29-51.1 31.8-3.2.4-18.5.8-34.2.8l-28.5.1-.2-30c0-16.5-.2-30.5-.2-31.1-.1-1.5-3.5-2.4-5.2-1.3-.7.4-2.1.4-3-.2-1.2-.6-1.9-.4-2.3.8-.4.9-.6 16.1-.6 33.7.1 17.7.1 33.4 0 34.9v2.9l39.2-.6c42.4-.6 44.8-.7 44.8-1.9 0-.4.6-.7 1.3-.6.6.1 1.9 0 2.7-.3.8-.3 3.1-1 5-1.7s4-1.3 4.5-1.5c3-.6 12.9-6 18.2-9.9 5.9-4.4 15.3-13.5 15.3-14.9 0-.3.6-1.3 1.4-2 2.8-2.8 8.6-16.2 10.2-23.3.3-1.7.7-8.2.9-14.6.2-9.8-.2-13-2.2-20-3.3-11.5-8.4-20.1-16.7-28.5-14.5-14.7-32.6-22.7-53.7-23.8-3.2-.2-6.2-.7-6.8-1-.6-.4-1.1-.3-1.1.3s-.7.8-1.6.4c-2.1-.8-19.4-1-19.4-.2 0 .4-1.6.3-3.5-.1s-3.7-.4-4 0c-.3.5-1.8.5-3.4 0-1.5-.4-3.4-.4-4.1 0-.6.4-2.7.4-4.6 0-1.9-.4-3.6-.4-3.9 0-.3.5-1.8.5-3.4 0-1.5-.4-3.4-.4-4.1 0-.7.4-2.5.4-4 0s-3.3-.4-4.1 0zm191-.3c-1.9.5-2.8 3.7-1.9 7.3l.6 2.5h94.9l-.1-2.3c0-1.2.3-2.2.7-2.2.5 0 .5-1 0-2.2-.7-2-2.8-3-5.8-2.9-.7.1-2 .1-2.8.1h-3.2c-1 0-3.1 0-4.8-.1-15.5-.4-70.5-.2-70.5.3 0 .4-1.2.3-2.7-.1-1.6-.4-3.5-.6-4.4-.4zm146.9-.1c-.3.2-1.5.5-2.9.8-1.4.2-2.3.9-2 1.7.3 1.4.4 7.7.1 9.1-.4 2.1-.2 9.9.3 10.4.3.3.2 1.7-.3 3s-.5 2.6-.1 2.8c.5.3.5 2.3.1 4.3-.3 2.1-.3 5 .1 6.6.4 1.5.4 2.7.1 2.7-.8 0-.6 12.5.2 14.6.3.8.2 1.4-.2 1.4-.8 0-.7 11.8.1 12.7.3.3.2 1.5-.3 2.8-.5 1.3-.6 2.6-.3 2.9.6.5.7 6.5.3 8.3-.5 2.1-.4 5 .2 7 .4 1.3.4 2.3 0 2.3-.5 0-.7 1.5-.5 3.3.4 3.6.6 9.8.3 10.9-.4 2.1-.2 9.9.3 10.4.3.3.2 1.7-.3 3s-.5 2.6-.1 2.8c.5.3.5 2.3.1 4.3-.3 2.1-.3 5 .1 6.6.4 1.5.4 2.7 0 2.7s-.5 1.6-.3 3.5l.4 3.6 5.6-.3 5.5-.3v-60c0-33 .2-60.4.5-60.9.2-.4 1.2.7 2 2.5.9 1.9 2 3.8 2.5 4.4 2.3 2.9 10.7 16.5 10.7 17.4 0 .6.4 1.1.8 1.1.5 0 1.5 1.2 2.3 2.7.8 1.6 1.7 3.2 2.2 3.8 1.1 1.5 4.1 6.2 14.7 23 5.2 8.2 9.8 15.1 10.2 15.3.4.2.8.7.8 1.2s4.3 7.6 9.6 15.9c8.8 13.9 9.8 15.1 12.5 15.1 1.9 0 3.2-.6 3.6-1.8.4-.9 1.1-2.2 1.6-2.7 1-1.2 24.7-38.6 24.7-39 0-.2 1.5-2.5 3.3-5.2 1.7-2.6 6.1-9.5 9.7-15.1 3.6-5.7 9.1-14.3 12.3-19.2 3.1-4.9 5.7-9.4 5.7-10 0-.5.3-1 .8-1 .4 0 1.8-2 3.2-4.5 1.4-2.5 2.7-4.5 3-4.5.3 0 .5 26.7.5 59.2 0 32.6.2 60.1.4 61 .3 1.5 1.4 1.8 5.8 1.8h5.4l-.2-71.9-.1-71.9-2.2-.4c-4.6-.8-7.5.6-10.4 5.2-1.6 2.5-4.9 7.6-7.4 11.5-2.4 3.8-6.2 9.9-8.4 13.5-2.1 3.6-4.7 7.4-5.6 8.4-1 1.1-1.8 2.3-1.8 2.8 0 1.1-9.2 15.2-10.2 15.6-.4.2-.6.8-.2 1.3.3.5 0 .9-.5.9-.6 0-1.1.4-1.1.9 0 .6-4.1 7.4-9.1 15.3s-10.4 16.3-12 18.8c-1.6 2.5-3.2 5-3.7 5.5-.5.6-1.1 1.5-1.3 2-1.1 2.6-5.5 9.5-6 9.5-.4 0-1.2-1.4-1.9-3-.7-1.7-1.7-3-2.2-3-.5 0-.7-.4-.4-.9.4-.5.3-1.1-.2-1.3-.4-.1-2.9-3.7-5.5-7.8-2.5-4.1-5.1-8-5.7-8.7-.5-.7-1-1.5-1-1.8 0-.3-2-3.6-4.4-7.3-12.8-19.8-17.6-27.4-17.6-28.2 0-.6-.4-1-1-1-.5 0-1-.4-1-.9s-4.5-7.9-10-16.6c-5.5-8.6-10-15.8-10-16.1 0-.3-.5-1-1-1.7-.6-.7-2.7-3.7-4.6-6.7-2.1-3.3-4.4-5.8-5.9-6.1-1.3-.4-2.5-.5-2.7-.3zm-148.4 66.9c-.4.8-.4 2.1-.1 2.9.3.7.1 1.8-.3 2.2-.5.5-.5 1.5 0 2.4.8 1.3 7.5 1.5 47.5 1.5 25.7 0 47-.2 47.5-.5.4-.3 1-2.3 1.1-4.5l.4-4-46.1-.1c-25.3 0-46.8-.4-47.8-.7-1-.4-1.9-.1-2.2.8zm-.5 69.7c-.5 1-.6 1.8-.1 1.8s.7 1.4.4 3l-.4 3h96l.4-3c.3-1.7.1-3-.3-3s-.6-.8-.5-1.7c.1-1.6-3.2-1.7-47.2-1.8-44.1 0-47.5.1-48.3 1.7z"/></svg>