<svg width="12" height="12" fill="none" xmlns="http://www.w3.org/2000/svg"><path d="M2.934 11.223C3.841 11.745 4.863 12 6 12c1.12 0 2.143-.254 3.066-.777.907-.508 1.615-1.234 2.143-2.147C11.736 8.163 12 7.15 12 6c0-1.132-.264-2.163-.791-3.076A5.75 5.75 0 009.066.777 6.274 6.274 0 006 0C4.863 0 3.84.27 2.934.794a5.676 5.676 0 00-2.16 2.147C.248 3.854 0 4.885 0 6c0 1.132.247 2.146.775 3.06a5.719 5.719 0 002.16 2.162zm5.687-.693c-.791.456-1.665.676-2.621.676-.973 0-1.846-.22-2.637-.676a4.71 4.71 0 01-1.847-1.86C1.055 7.876.841 6.98.841 6s.214-1.86.675-2.654A4.864 4.864 0 013.363 1.47 5.336 5.336 0 016 .794c.956 0 1.83.237 2.62.676a5.102 5.102 0 011.847 1.876c.445.795.676 1.674.676 2.654s-.23 1.876-.676 2.67c-.462.795-1.071 1.42-1.846 1.86z" fill="#F7C91E"/></svg>