<svg width="68" height="52" fill="none" xmlns="http://www.w3.org/2000/svg"><g clip-path="url(#clip0_6_2554)"><path d="M12.269 51.883V48.5c0-1.297-.815-2.142-2.152-2.142-.702 0-1.454.226-1.978.952-.407-.62-.983-.953-1.86-.953a2.03 2.03 0 00-.946.19 1.963 1.963 0 00-.74.6v-.68H3.487v5.412h1.106v-3.097c0-.953.581-1.409 1.396-1.409s1.28.508 1.28 1.409v3.1h1.105v-3.1c0-.953.581-1.409 1.396-1.409s1.28.508 1.28 1.409v3.1h1.219zm18.15-5.357h-2.036v-1.633H27.28v1.633h-1.163v.953h1.163v2.543c0 1.24.465 1.974 1.861 1.974a3.336 3.336 0 001.51-.395l-.35-.953a1.96 1.96 0 01-1.047.282c-.582 0-.873-.339-.873-.902v-2.592h2.037v-.903l.002-.007zm10.356-.169a1.785 1.785 0 00-.864.202 1.72 1.72 0 00-.65.588v-.68h-1.105v5.412h1.106v-3.04c0-.902.465-1.466 1.222-1.466.255.01.509.048.755.113l.35-1.015a4.059 4.059 0 00-.814-.113zm-15.65.564c-.581-.395-1.396-.563-2.268-.563-1.396 0-2.268.62-2.268 1.692 0 .902.64 1.409 1.86 1.579l.582.056c.64.112 1.048.338 1.048.62 0 .395-.465.68-1.338.68a3.136 3.136 0 01-1.862-.563l-.581.846c.815.563 1.803.68 2.388.68 1.63 0 2.501-.732 2.501-1.748 0-.953-.702-1.409-1.92-1.579l-.581-.056c-.524-.055-.984-.225-.984-.563 0-.395.465-.68 1.106-.68.702 0 1.396.281 1.746.45l.572-.85zm16.872 2.256c0 1.633 1.105 2.819 2.909 2.819.814 0 1.396-.169 1.977-.62l-.581-.846a2.398 2.398 0 01-1.454.508c-.983 0-1.746-.733-1.746-1.804 0-1.071.753-1.798 1.746-1.798.53.005 1.042.184 1.454.507l.581-.845c-.581-.45-1.163-.62-1.977-.62-1.746-.114-2.91 1.07-2.91 2.706v-.007zm-7.796-2.82c-1.63 0-2.735 1.128-2.735 2.82s1.163 2.819 2.85 2.819a3.633 3.633 0 002.268-.732l-.581-.79a2.835 2.835 0 01-1.63.564c-.755 0-1.57-.451-1.685-1.41h4.131v-.45c0-1.692-1.048-2.82-2.618-2.82zm-.058 1.016c.815 0 1.396.508 1.454 1.353h-3.024c.174-.79.702-1.353 1.57-1.353zm-15.067 1.804V46.47H17.97v.68c-.407-.508-.983-.79-1.803-.79-1.57 0-2.735 1.185-2.735 2.82 0 1.635 1.163 2.819 2.735 2.819.814 0 1.396-.282 1.803-.79v.681h1.106v-2.714zm-4.48 0c0-1.016.64-1.804 1.746-1.804 1.048 0 1.686.79 1.686 1.804 0 1.071-.702 1.803-1.686 1.803-1.105.056-1.746-.79-1.746-1.803zm42.993-2.82a1.786 1.786 0 00-.864.202 1.72 1.72 0 00-.648.588v-.68H54.97v5.412h1.104v-3.04c0-.902.465-1.466 1.222-1.466.256.01.51.048.756.113l.35-1.015a4.06 4.06 0 00-.815-.113h.001zm-4.305 2.82V46.47H52.18v.68c-.408-.508-.983-.79-1.804-.79-1.57 0-2.735 1.185-2.735 2.82 0 1.635 1.163 2.819 2.735 2.819.815 0 1.396-.282 1.804-.79v.681h1.105v-2.714zm-4.48 0c0-1.016.641-1.804 1.747-1.804 1.048 0 1.685.79 1.685 1.804 0 1.071-.702 1.803-1.685 1.803-1.106.056-1.746-.79-1.746-1.803zm15.709 0v-4.85h-1.106v2.82c-.407-.508-.983-.79-1.803-.79-1.57 0-2.735 1.185-2.735 2.82 0 1.635 1.163 2.819 2.735 2.819.815 0 1.396-.282 1.803-.79v.681h1.106v-2.71zm-4.48 0c0-1.016.641-1.804 1.746-1.804 1.048 0 1.686.79 1.686 1.804 0 1.071-.702 1.803-1.686 1.803-1.106.058-1.747-.788-1.747-1.803h.002z" fill="#fff"/><path d="M44.186 4.467H23.93v32.837h20.255V4.466z" fill="#FF5F00"/><path d="M25.975 20.885c0-3.159.72-6.276 2.105-9.12a20.965 20.965 0 015.891-7.298A21.125 21.125 0 0011.801 2.1a20.97 20.97 0 00-8.628 7.704A20.792 20.792 0 00-.03 20.885c0 3.92 1.11 7.76 3.202 11.081a20.969 20.969 0 008.628 7.705 21.125 21.125 0 0022.17-2.367 20.966 20.966 0 01-5.891-7.299 20.838 20.838 0 01-2.105-9.12z" fill="#EB001B"/><path d="M68.001 20.885A20.77 20.77 0 0164.81 31.96a20.948 20.948 0 01-8.618 7.703 21.104 21.104 0 01-22.154-2.36 20.956 20.956 0 005.893-7.297 20.828 20.828 0 000-18.241 20.956 20.956 0 00-5.893-7.298 21.104 21.104 0 0122.154-2.36A20.948 20.948 0 0164.81 9.81a20.77 20.77 0 013.192 11.075z" fill="#F79E1B"/></g><defs><clipPath id="clip0_6_2554"><path fill="#fff" d="M0 0h68v52H0z"/></clipPath></defs></svg>