<svg width="94" height="14" fill="none" xmlns="http://www.w3.org/2000/svg"><path d="M0 4.667v4.666h2.115V4.958l1.234 1.225L4.57 7.397l1.304-1.272 1.293-1.272v4.48h2.115V4.667C9.283 2.1 9.247 0 9.2 0S8.108.992 6.874 2.217L4.64 4.433 2.41 2.217C1.187 1.003.14 0 .094 0 .035 0 0 2.1 0 4.667zM15.827.128a4.909 4.909 0 00-2.291 1.307c-.729.77-1.046 1.388-1.269 2.427-.681 3.255 2.362 6.183 5.64 5.425 1.551-.362 2.714-1.272 3.337-2.614.435-.945.505-2.496.153-3.535-.74-2.216-3.231-3.558-5.57-3.01zm2.197 2.147c.8.338 1.352 1.283 1.375 2.392.047 1.726-1.022 2.776-2.702 2.66-.94-.07-1.54-.479-1.986-1.365-.306-.607-.329-.724-.247-1.505.059-.677.141-.957.412-1.342.716-1.015 1.938-1.342 3.149-.84zm6.534 2.392v4.666h2.115V4.2l3.525 2.625c1.938 1.447 3.583 2.625 3.654 2.625.07 0 .094-.082.059-.187-.036-.105-.071-2.205-.071-4.666V.117h-2.115l-.024 2.52-.035 2.52-3.454-2.579C26.308 1.155 24.71 0 24.652 0c-.047 0-.095 2.1-.095 4.667zM40.326.175c-2.35.723-3.666 2.532-3.525 4.83.082 1.167.435 2.03 1.14 2.823 1.985 2.217 5.546 2.077 7.367-.291 1.469-1.914 1.199-4.795-.6-6.359-1.127-.98-3.054-1.423-4.382-1.003zm2.256 2.1c.822.35 1.469 1.435 1.48 2.485 0 .595-.375 1.587-.763 1.96-.952.945-2.961.782-3.737-.303-.693-.969-.775-1.937-.258-2.987.61-1.237 1.95-1.703 3.278-1.155zM64.32.607c-.177.338-.541 1.038-.811 1.551-.27.514-.976 1.855-1.551 2.975-.588 1.12-1.304 2.497-1.61 3.045-.294.549-.505 1.039-.458 1.074.035.046.564.081 1.151.081h1.081l.294-.56.282-.548 2.056-.035 2.056-.023.282.583.27.583h1.164c.635 0 1.151-.046 1.151-.105 0-.105-.376-.828-2.76-5.32C64.93.187 64.824 0 64.718 0c-.047 0-.235.28-.4.607zm.975 4.666l.481.969-.516.035a7.647 7.647 0 01-1.035 0l-.516-.035.481-.969c.259-.525.517-.956.553-.956.035 0 .293.431.552.956zm6.733-.618v4.678h2.115V4.2l.751.56c.412.303 1.998 1.482 3.525 2.613 1.528 1.144 2.809 2.077 2.856 2.077.058 0 .082-2.1.058-4.667L81.31.117h-2.115v2.508c0 1.377-.023 2.508-.059 2.508-.035 0-1.563-1.131-3.407-2.508-1.833-1.388-3.42-2.543-3.525-2.578-.153-.059-.176.466-.176 4.608zm-22.913.07v4.608h3.032c3.407 0 4.136-.093 4.946-.63.705-.478 1.01-1.073.999-2.006-.012-.852-.258-1.342-.952-1.867l-.493-.373.282-.257c.599-.56.834-1.715.517-2.532-.2-.525-.811-1.061-1.48-1.318-.577-.21-.917-.233-3.737-.233h-3.114v4.608zm6.051-2.333c.447.431.376.886-.188 1.166-.247.129-.764.175-2.044.175H51.23V2.1h1.821c1.786 0 1.833.012 2.115.292zm.083 3.325c.693.198.88.77.446 1.318l-.235.292-2.115.023-2.115.012V5.6h1.798c.975 0 1.986.058 2.22.117zm29.586-.992v4.608h1.034l1.022-.011.975-1.389.976-1.4 1.257 1.4 1.245 1.4h1.328c.987 0 1.328-.035 1.328-.151 0-.07-.305-.479-.67-.899-.364-.42-.775-.886-.904-1.038a124.809 124.809 0 00-1.787-1.983l-.481-.514 1.175-1.645A114.15 114.15 0 0192.966.852c.247-.339.447-.642.447-.677 0-.035-.564-.058-1.27-.058h-1.257l-1.938 2.695-1.94 2.695-.034-2.695L86.95.117h-2.115v4.608zM0 13.125V14h94v-1.75H0v.875z" fill="#fff"/></svg>