<svg width="74" height="49" fill="none" xmlns="http://www.w3.org/2000/svg"><path d="M68.788 48H5.748A4.748 4.748 0 011 43.252V5.747A4.748 4.748 0 015.747 1h63.041a4.748 4.748 0 014.748 4.747v37.506A4.748 4.748 0 0168.787 48z" fill="#F9F9F9"/><path d="M21.02 27.205c.02.111.049.221.138.354l4.648-11.742h4.727c-.085.216-.156.407-.235.594-2.31 5.515-4.623 11.03-6.929 16.547-.088.21-.193.29-.43.289a278.66 278.66 0 00-4.19-.002c-.21.002-.299-.05-.355-.27-1.166-4.54-2.353-9.077-3.509-13.62" fill="#0052CC"/><path d="M14.885 19.355c-.207-.816-.617-1.379-1.394-1.725-1.281-.57-2.613-.967-3.973-1.284-.06-.015-.117-.038-.176-.057v-.125c.042-.342.258-.373.559-.372 2.37.013 4.739.007 7.108.008 1.177 0 1.984.655 2.203 1.812.607 3.197 1.206 6.395 1.808 9.593" fill="#FFC601"/><path d="M46.722 15.482c.506.083 1.016.148 1.517.256.494.107.98.254 1.467.389.117.033.23.086.367.14l-.778 3.634c-.594-.187-1.161-.4-1.747-.542-1.053-.256-2.129-.366-3.19-.08-.384.103-.77.32-1.07.581-.509.444-.51 1.093-.018 1.556.334.316.727.58 1.124.815.791.468 1.622.869 2.403 1.353 1.05.652 1.923 1.483 2.273 2.722.508 1.8-.047 4.2-2.052 5.646-1.153.833-2.458 1.268-3.847 1.446-2.186.281-4.33.067-6.419-.65-.116-.04-.228-.092-.376-.152l.812-3.807c.177.076.329.137.476.207a9.157 9.157 0 004.082.89c.656-.008 1.298-.109 1.889-.421 1.08-.57 1.222-1.677.271-2.43-.465-.37-1-.659-1.53-.935-.882-.459-1.754-.924-2.52-1.569-2.189-1.837-1.909-4.406-.725-6.135.974-1.42 2.406-2.173 4.034-2.584.519-.131 1.058-.18 1.586-.269.079-.013.155-.04.232-.061h1.739zm18.471 17.742h-4.155c-.132-.62-.268-1.241-.395-1.865-.147-.731-.144-.732-.902-.732-1.582 0-3.165.005-4.748-.004-.22-.001-.328.062-.4.277a57.79 57.79 0 01-.758 2.097c-.038.098-.17.227-.26.228-1.498.015-2.997.01-4.53.01.04-.109.064-.195.099-.278 2.204-5.266 4.41-10.532 6.617-15.798.373-.893 1.065-1.353 2.026-1.354h3.767l3.64 17.42zm-5.447-6.154L58.4 20.617a7.727 7.727 0 01-.07-.01 7199.15 7199.15 0 01-2.34 6.462h3.756zM28.76 33.24l3.73-17.423h4.5c-.12.576-.234 1.13-.352 1.684-1.092 5.11-2.188 10.218-3.269 15.33-.07.328-.186.423-.52.417-1.23-.022-2.462-.008-3.693-.008h-.396z" fill="#0052CC"/><path d="M68.788 48H5.748A4.748 4.748 0 011 43.252V5.747A4.748 4.748 0 015.747 1h63.041a4.748 4.748 0 014.748 4.747v37.506A4.748 4.748 0 0168.787 48z" stroke="#303030" stroke-width=".8" stroke-miterlimit="10" stroke-linecap="round" stroke-linejoin="round"/></svg>